<svg xmlns="http://www.w3.org/2000/svg" xmlns:xlink="http://www.w3.org/1999/xlink" version="1.1" baseProfile="full" viewBox="0 0 200 200" width="200" height="200">
<g fill="black">
<path d="M 163.2 175.3 L 157.5 167.4 L 152.3 158.4 L 147.4 148.3 L 143.0 137.1 L 138.9 124.9 L 135.3 111.6 L 132.2 97.2 L 129.9093596458435 83.45615758895875 L 125.0 84.2 L 118.4 85.0 L 111.7 85.5 L 110.7 85.51470584869385 L 110.7 168.05 L 112.2 167.3 L 115.7 165.5 L 119.3 163.7 L 130.4 158.3 L 134.3 156.6 L 138.1 154.7 L 139.2 156.2 L 136.1 159.2 L 133.1 162.2 L 130.0 165.1 L 126.9 167.8 L 123.7 170.5 L 120.6 173.1 L 117.4 175.6 L 107.8 182.8 L 107.6872727394104 182.6127272605896 L 102.7 187.6 L 92.7 177.6 L 98.7 171.6 L 98.7 76.7 L 109.70769233703614 82.20384616851807 L 111.0 81.8 L 123.6 77.8 L 129.7 75.8 L 135.8 73.7 L 141.7 71.6 L 147.6 69.3 L 153.3 66.9 L 158.9 64.4 L 163.61448831558226 62.12694311141968 L 163.6 62.1 L 163.62458410263062 62.12207555770874 L 164.5 61.7 L 165.36687002182006 63.686577224731444 L 173.4 70.9 L 173.6 74.1 L 169.78096504211425 72.4888445854187 L 169.3 72.7 L 163.2 74.9 L 157.0 76.9 L 150.8 78.8 L 144.5 80.4 L 138.1 81.9 L 132.01740226745605 83.11651954650878 L 136.2 96.1 L 141.0 109.9 L 145.77379579544066 122.43121385574341 L 146.7 121.7 L 150.2 118.7 L 153.6 115.9 L 156.8 113.3 L 160.0 110.8 L 162.9 108.4 L 165.7 106.1 L 168.3 103.8 L 170.8 101.7 L 172.2609375 100.371875 L 172.2 100.3 L 172.26256980895997 100.37039108276367 L 173.0 99.7 L 178.4545454978943 107.33636360168457 L 180.2 109.3 L 180.3 112.9 L 176.5957529067993 111.32226514816284 L 174.2 112.6 L 171.0 114.2 L 167.7 115.8 L 164.2 117.5 L 160.5 119.3 L 156.7 121.0 L 152.6 122.7 L 148.3 124.4 L 146.86048469543456 124.98889265060424 L 150.7 134.0 L 155.8 144.2 L 161.1 153.2 L 166.6 161.1 L 172.1 167.7 L 177.8 173.0 L 183.5 177.3 L 186.9 179.6 L 175.9 188.0 L 169.3 182.2 Z M 131.8 18.3 L 133.7 21.3 L 130.0481481552124 21.803703689575194 L 128.4 25.1 L 124.7 31.8 L 120.9 38.5 L 116.9 45.1 L 116.31846151351928 46.0 L 163.4 46.0 L 173.4 36.0 L 185.4 46.0 L 185.4 50.0 L 113.73384618759155 50.0 L 112.7 51.6 L 108.4 58.0 L 103.8 64.3 L 98.9 70.6 L 93.8 76.6 L 88.3 82.5 L 86.8 81.4 L 90.7 74.4 L 94.5 67.6 L 101.9 54.0 L 105.4 47.3 L 108.8 40.5 L 112.0 33.8 L 115.1 27.0 L 118.0 20.2 L 120.8 13.4 L 120.80768957138062 13.403425407409667 L 121.3 12.2 Z " />
</g>
</svg>
