<?xml version='1.0' encoding='UTF-8'?><svg xmlns="http://www.w3.org/2000/svg" width="176.57pt" height="89.03pt" viewBox="0 -89.03 176.57 89.03"><path fill="none" stroke="#000" stroke-width="0.1417" d="M0-78.2344h176.57"/><path fill="none" stroke="#000" stroke-miterlimit="10" stroke-width="0.1417" d="M0-82.5273h176.57M0-86.8164h176.57M0-88.9609h176.57M0-73.0898h176.57M0-71.8008h176.57"/><path d="M3.2475-84.30222c-.22937 0-.35875.09938-.37875.30875 0 .06969.01.20906.03.29875.02.04.02.04969.09969.08969.03969.03.07969.04969.08968.04969l-.01999-.09938c-.02-.07-.02-.12969-.02-.21937 0-.40844.34874-.31875.6475-.19906l.09968.03968v.38844c0 .96625-.05 1.68344-.14937 2.37094-.18938 1.285-.54813 2.17156-1.02625 2.539997-.19907.159376-.36844.239063-.69719.239063-.08969 0-.17938 0-.25906-.02-.53781-.119375-.886565-.408125-1.095627-.94625-.129376-.31875-.199376-.6575-.199376-.98594 0-.75719.38875-1.36469 1.006253-1.36469.40844 0 .73719.35844.73719.74688 0 .13969-.04.26906-.11969.38844-.01.03-.02969.05-.02969.05 0 .01.04969.01.09938.01h.10968c.10969-.16938.19907-.34875.19907-.58782 0-.53781-.42813-1.01593-.98594-1.01593-.896565 0-1.40469.83656-1.40469 1.79281 0 .83687.31875 1.494375.767187 1.862813.288753.249062.647503.398437 1.125623.398437.36844 0 .6475-.109688.88657-.27875.21906-.159375.41812-.38875.59749-.6675.37844-.6375.6475-1.61375.76719-2.84906.05969-.50782.06969-.79688.07969-1.39438 0-.27906.01-.49812.01-.49812s.07969.03969.16906.07969l.16938.06968v1.19531c0 1.38469.31875 2.59.84687 3.317192.44813.627501 1.10563.99625 1.9025.99625.52781 0 1.03594-.189374 1.50406-.558125.13969-.109375.36875-.338437.48813-.497817.55781-.6875.89655-1.58406 1.00625-2.62.01-.09937.0197-.27874.0197-.46812 0-.72719-.1094-1.245-.2988-1.78313-.26871-.79687-.68715-1.295-1.18528-1.43437-.07968-.02-.10968-.02-.26906-.02-.12937 0-.19906 0-.25875.01-.85687.16937-1.355 1.00625-1.355 2.25125 0 .47812.05.80687.14969 1.16563.03969.14937.12937.42812.13938.41843.00999-.01.06968-.13969.09968-.16937l-.04-.12969c-.12937-.38844-.19906-.78688-.19906-1.17531 0-1.09563.53781-1.9725 1.45406-1.9725.20938 0 .37875.06.55782.18937.47812.35875.81687 1.305.81687 2.43063 0 1.79312-.99594 3.964372-2.62969 3.964372-.19906 0-.39844-.029687-.59781-.099375-.80656-.259062-1.275-1.006247-1.45406-2.291247C5.15-81.63284 5.15-82.36972 5.15-83.31628v-.14937l.09969.02c.11937.02999.21906.04968.31875.04968.6475 0 .95625-.6075.95625-1.255 0-.23906-.05-.50812-.12969-.73718h-.20906l.03.09968c.05969.17938.06968.30875.06968.50813v.08937c0 .13969-.01999.21938-.05.33875-.10937.32875-.29875.54781-.68718.54781-.09969 0-.25907-.01968-.38844-.03968v-.26906c0-.82657.05969-2.73938.11938-4.04407.00999-.21938.02-.46848.02999-.54808v-.1394c-.10968-.0697-.20937-.1594-.31875-.2391-.53781 1.19533-.88656 2.37096-1.05593 3.60596-.05969.38844-.11969 1.00625-.11969 1.19531 0 .03 0 .06-.00969.06 0 0-.54812-.07969-.55781-.07969zm1.51406-2.85906c-.08968.87656-.15937 1.98219-.19937 2.95844 0 .11968-.01.20937-.01.20937s-.07969-.02-.16938-.05l-.15937-.04968v-.08969c.02-.69719.14969-1.62375.32875-2.40063.06-.25906.21937-.82687.22906-.82687 0 .01-.00969.11968-.01969.24906zM16.5893-82.00128c-.1794 0-.3588-.09969-.4684-.24906-.2191-.28875-.2888-.88657-.2888-1.55407 0-.50781.02-1.21499.0497-1.42437.1694-1.52406.9662-2.87875 2.3409-3.23752.1297-.0297.2891-.0597.3288-.0597h.03l-.03.0997c-.2391 1.05596-.3585 2.15158-.3585 3.13783 0 1.09563.1594 2.08188.4282 2.98844.1397.54781.2193 1.09562.2193 1.66344 0 .72718-.1693 1.295-.4781 1.633748-.2094.229062-.5281.358437-.8769.358437-.5478 0-1.0159-.408437-1.0159-1.025935l-.01-.15938-.1594-.08969c-.0997-.05968-.1793-.09968-.1793-.08968 0 0-.0197.04-.0297.09968-.01.05969-.01.14938-.01.23907 0 .826873.6075 1.394372 1.3647 1.434373h.0396c.4285 0 .8169-.149375 1.116-.448125.5078-.508126.7269-1.364688.7269-2.390938 0-.54781-.0497-.91625-.1791-1.53406-.2991-1.49407-.4484-2.67938-.4484-3.73532 0-.58781.05-1.13562.1396-1.67343.0297-.20938.0894-.51816.0994-.52816h.03c1.3547 0 2.4903.52816 2.8588 1.27535.1097.22906.1593.42812.1593.69718 0 .57782-.239 1.14563-.6671 1.59375l-.0797.07969-.1894-.08969c-.4781-.23906-.9066-.35843-1.2353-.35843-.4281 0-.7172.19906-.7172.6075 0 .43843.4484.59781.9166.59781.4184 0 .8268-.12969 1.1556-.27906l.1494-.07969.0796.06968c.6672.54782 1.255 1.32501 1.6038 2.08188.2587.58781.3984 1.10563.3984 1.72344 0 1.18531-.9462 1.982185-1.9425 1.982185-.5978 0-1.0259-.28875-1.275-.667495-.1693-.23907-.249-.46813-.249-.85657 0-.55781.259-.93625.6275-1.17531.0597-.04.1097-.06969.1097-.06969 0-.01-.1794-.07-.1894-.07-.0497 0-.2691.12969-.3885.21938-.3684.29875-.5778.76687-.5778 1.245 0 .6375.3288 1.135623.8069 1.444373.3188.209375.6175.33875 1.1256.33875.1294 0 .2791-.010001.3588-.020001 1.0956-.179375 1.9722-.906249 2.1715-2.012192.0197-.10937.0197-.15937.0197-.38843 0-.17938 0-.29875-.01-.40844-.1093-.89656-.4881-1.73312-1.1653-2.53-.1197-.14938-.4581-.47812-.6078-.61781-.1494-.11938-.3684-.28875-.5078-.38844-.05-.02969-.0997-.06969-.0997-.06969 0-.01.0497-.04968.0997-.08968.4781-.38844.7769-.87657.8566-1.46407.02-.09968.03-.23906.03-.36875 0-.54781-.1994-.94625-.5282-1.295-.6475-.67723-1.7431-1.01593-2.9981-1.06563h-.1994l-.0797-.07c-.0396-.0397-.0696-.0697-.0696-.0597-.01 0-.01.02-.01.03-.01.02-.02.0497-.02.0697l-.0097.0397h-.0997c-.3488.03-.7869.1594-1.1256.3487-1.096.59786-1.8429 1.87286-2.0022 3.41661-.01.09969-.02.32875-.02.56781 0 .23906.01.48812.02.6475.0597.94656.209 1.58406.4681 1.9725.1294.20906.3487.38844.6375.38844.1694 0 .3287-.06969.4581-.18938.3688-.35843.5478-1.15531.5778-2.55v-.32875h-.209v.40844c-.02.98625-.0897 2.26125-.7969 2.26125zm2.8984-2.61969c0-.29906.1397-.52812.4485-.52812.2987 0 .4381.07968.6872.18937.1196.06969.289.16938.3787.22906l.0197.02-.0097.01001c-.2394.20906-.7572.44812-1.0959.44812-.2688 0-.4285-.10969-.4285-.36844zM33.8044-78.644405c-.1394 0-.2788-.02-.4281-.049688-.4185-.079687-.7972-.289062-1.1257-.607807-.6775-.67719-1.0659-1.80282-1.1059-3.13782 0-.26875.01-.93625.02-.94625.01 0 .0697.01.1494.02.1793.03.3687.03969.5478.03969.3487 0 .7075-.04969 1.0859-.13937 1.1156-.27876 2.0619-.90657 2.6097-1.74313.3188-.48813.4881-1.03594.4881-1.59375 0-.15938-.01-.30875-.0397-.46812-.1793-1.02625-.9762-1.84285-2.1815-1.84285-.0697 0-.1394 0-.2091.0097-1.1756.1197-2.1319 1.29502-2.6597 3.24752-.1397.50813-.249 1.05594-.3087 1.60375-.04.29875-.04.29875-.05.29875-.02 0-.2291-.10938-.3288-.17937-.3584-.23907-.5778-.54782-.6672-.94625-.02-.09969-.02-.12938-.02-.38844 0-.83657.1794-1.67344.5178-2.47032.1397-.31874.3788-.77684.5382-1.01594h-.2094l-.0897.1194c-.7272.94623-1.1353 2.10186-1.1753 3.30717 0 .23906.01.37844.04.53781.1394.6175.6075 1.13563 1.3147 1.41469.05.01969.0597.02969.0597.03969-.0197.06969-.0297.54781-.0297.92625 0 .46844 0 .60781.0497.92656.1197.81688.4084 1.57375.8168 2.15156.4982.687503 1.2951 1.295003 2.321 1.295003 1.0559 0 1.7931-.6575 1.9525-1.534063.01-.06969.01-.16938.01-.26906 0-.12938 0-.25875-.02-.33844-.1394-.74719-.6972-1.325-1.4244-1.47438-.0997-.02-.3187-.03968-.3387-.03968-.01 0 .0496.07968.1093.15937.01 0 .05.00969.1097.01969.6775.13969 1.265.71719 1.265 1.53406 0 .89657-.7272 1.534065-1.5937 1.534065zm1.8328-8.168125c0 .71719-.2988 1.32469-.8366 1.87281-.4881.47813-1.1456.85656-1.8828 1.05563-.3884.10969-.7372.16937-1.0856.16937-.1694 0-.3388-.01-.5081-.03968-.0597 0-.1194-.02-.1194-.02-.01-.01001 0-.18938.0297-.47813.1693-1.57375.5778-2.87875 1.1356-3.64594.3684-.50783.7769-.77683 1.265-.84653.03-.01.0797-.01.1297-.01 1.1853 0 1.8725.83685 1.8725 1.94247zM41.1725-79.99909c0 .48812.1894 1.015935.4981 1.354685.2888.29875.6375.488125 1.2053.488125.1394 0 .1991 0 .2688-.01.4384-.099688.7772-.34875 1.0659-.776875.04-.069687.0997-.159375.1297-.209375l.0497-.09938.1794.179068c.5078.508125.9462.757187 1.4443.826874.0697.010001.1394.010001.2091.010001.3488 0 .7072-.099688.9963-.288751.6375-.408437 1.0956-1.275312 1.295-2.450622.0797-.45813.1193-.98625.1193-1.52406 0-2.51032-.7668-4.65188-2.0421-5.70782-.2191-.18908-.4182-.31878-.6772-.44808l-.1694-.0897.0597-.0997.05-.1094h-.2094c-.0397.0397-.0797.0894-.1094.1394l-.1097-.04c-.1196-.0397-.3387-.0797-.5081-.1094-.0994-.01-.3287-.01-.5078-.01h-.1794c-.9662.0797-1.8031.5875-2.4406 1.49407-.3087.42844-.5975 1.03594-.7072 1.50406-.0597.22938-.0897.47813-.0897.7075 0 .37844.0797.72719.2194 1.02594.2391.47812.6275.75688 1.0856.75688.3188 0 .5678-.11938.7669-.30875.2891-.29875.4981-.86657.4981-1.52407v-.06968h-.209v.10968c0 .44813-.0797.87657-.2094 1.12563-.1494.29875-.3685.49812-.7669.49812-.0797 0-.1694-.01-.2391-.03-.5378-.16937-.8168-.77687-.8168-1.45437 0-.25907.04-.53782.1297-.80688.1393-.38843.4381-.94625.7468-1.35469.4085-.54781.8966-.92656 1.4147-1.12564.2588-.0897.5875-.1494.9063-.1494.1494 0 .299.01.4384.0397.0797.01.2888.06.2988.0697.01 0-.02.04-.0497.0897-.6775 1.01626-1.046 2.22157-1.046 3.44657 0 .51812.0497.86687.1494 1.345.1494.73688.2091 1.33469.2091 1.94219 0 .45843-.0297.86687-.0994 1.22531-.05.21906-.1297.56781-.1497.56781-.4881-.53781-1.0756-1.11562-1.9522-1.11562-.6575 0-1.1456.36844-1.1456.96625zm3.6756-4.64188c0-1.22531.2291-2.43062.6775-3.57625.0297-.06968.0497-.12938.0597-.12938 0 0 .0497.02.0997.0497.3388.16937.6672.44843.9063.75718.6875.84656 1.1456 2.15157 1.3249 3.80532.0697.54781.0797.89624.0797 1.54375 0 .58781 0 .74718-.0496 1.12562-.1297 1.20531-.5082 1.9625-1.1357 2.27125-.1993.109688-.4284.159375-.6575.159375-.1793 0-.3587-.03-.5278-.099688-.2991-.119375-.5678-.30875-.9365-.667187-.1194-.12969-.1594-.16938-.1494-.17938.02-.03999.1097-.30874.1494-.45843.1893-.65719.289-1.42438.289-2.26094 0-.76719-.1297-1.55406-.1297-2.34094zm-2.1815 3.98438c.5578.11969.9662.46812 1.315.91656.0897.11938.1693.21906.1693.21906 0 .01-.03.07969-.0697.14938-.229.468123-.5478.757185-.9165.846872-.0697.019688-.1594.019688-.2591.019688-.0797 0-.1593 0-.219-.01-.1991-.049687-.4285-.149375-.5678-.24875-.3088-.229375-.5379-.7075-.5379-1.22531 0-.42844.2788-.6875.7372-.6875.1094 0 .2591.01.3485.02zM60.6099-80.91566c0-.86656-.5775-1.45406-1.474-1.45406-.4782 0-.7769.15938-1.036.38844-.1694.16937-.3087.41812-.3687.65719-.0197.07969-.0497.26906-.0497.30906 0 .01969.0997.13937.1294.17906v-.09937c0-.15938.04-.36875.1096-.52813.01-.02968.0497-.08968.0697-.12937.1994-.30875.5182-.50813 1.016-.50813.0997 0 .1993 0 .259.01.5182.11969.9266.47813.9266 1.08563v.09968c0 .21938-.01.31876-.06.51813-.2588.99594-1.3047 1.753125-2.6894 1.753125-.279 0-.5578-.04-.8369-.109688-1.0259-.268749-1.7731-1.005937-1.9225-2.091877-.01-.05969-.0196-.18906-.0196-.30875 0-.11937.0096-.24906.0196-.30875.0997-.69718.4385-1.32468.9963-1.82281.6675-.59781 1.5441-.94625 2.4803-.98625h.1594v-.40844h-.1294c-.7272-.03969-1.3747-.36843-1.7334-.89656l-.0497-.06969h.0297c.01-.01.0897-.02.1693-.02 1.096-.12937 2.1519-.67718 2.59-1.34469.1694-.24906.2591-.49812.2591-.75687 0-.37875-.2191-.73722-.6078-.98622-.3088-.1894-.6572-.2691-1.1653-.2691-.3388 0-.6275.0897-.8966.2194-.5878.2987-1.0659.84654-1.235 1.49404-.04.17938-.07.35844-.07.54782 0 .22906.04.45812.1097.6775.02.06968.04.12937.04.12937-.01 0-.2194-.03968-.3387-.07969-.5579-.15937-.9963-.48812-1.2054-.89656-.0896-.18906-.1393-.35843-.1393-.6375 0-.10937 0-.20906.0197-.28875.1096-.50813.4681-.91653.9462-1.07593l.0797-.0297h-.1094c-.0897 0-.0997 0-.1794.0297-.6075.2691-.9762.87656-.9762 1.51406 0 .10968.01.20937.03.31875.1794.85687.9362 1.345 1.9722 1.44437l.06.01.0497.08969c.2987.44844.7968.77687 1.4343.95625.0497.01.0597.02.04.02-.4184.09969-.6475.17938-.9662.31875-1.3847.6275-2.2513 1.85281-2.2513 3.12781 0 .14938.01.30875.0397.46813.2391 1.40468 1.4544 2.420623 3.2275 2.420623 1.8328 0 3.2472-1.225313 3.2472-2.679693zm-1.6634-7.12218c.0597.10969.0897.22906.0897.35875 0 .15937-.0497.32875-.1294.49781-.3388.6975-1.3747 1.21531-2.5203 1.285h-.1294l-.02-.06969c-.1097-.26875-.1694-.52781-.1694-.79687 0-.23907.0497-.47813.1394-.70719.2291-.59781.8069-1.16527 1.5741-1.16527.5778 0 .9959.229 1.1653.59746zM66.9822-79.86972v-.09937c-.04-.02-.1494-.09969-.1694-.09969 0 0-.02.03969-.03.09969-.01.05968-.01.15937-.01.25875 0 .09968 0 .19937.01.25906.1394.707187.6875 1.225312 1.5341 1.225312.1294 0 .259 0 .3387-.02.4981-.109687.8466-.408437 1.1257-.95625.3087-.617502.4781-1.504062.5378-2.819062.01-.26875.03-.92625.03-1.18531v-.18938h.4381c.3387 0 .4284 0 .4284.01 0 .02.0397.34875.0697.6275.04.34875.0597.56782.0697.77719v.16937h.2094v-.19937c-.01-.20906-.03-.50812-.0797-1.01594-.02-.17937-.03-.33875-.03-.34875v-.02h.3187c.3588 0 .4185-.01.5278-.06968.1794-.07969.2991-.29876.2991-.54782 0-.43844-.3187-.6675-.7572-.6675-.1494 0-.1693 0-.239.02-.2788.09969-.4085.40844-.4085.79688v.05968h-.8465v-.25875c.0396-1.21531.1593-2.54031.3684-3.59624.6375.36874 1.0859.6875 1.8828.6875.1794 0 .1991 0 .2988-.02001.4084-.11937.7071-.41843.7071-.96624 0-.14938 0-.17938-.0199-.26907-.1194-.39848-.4182-.68718-.8766-.72688H72.62v.2091c.3888.0397.6875.219.6875.68716 0 .43844-.2887.6875-.7072.6875-.2891 0-.6875-.08969-1.0359-.23907-.1894-.07968-.7672-.36875-.7672-.41843 0-.04969.04-.26906.1297-.65746l.0497-.1991-.0697-.0797-.0797-.0697-.0997.2488c-.0497.1397-.1194.3287-.1594.4184-.03.0897-.0497.16938-.0597.16938 0 0-.0897-.04968-.2093-.11938-.6872-.4184-1.1157-.5778-1.5938-.6278-.0597-.0097-.1094-.0097-.1694-.0097-.4681 0-.9062.1891-1.3047.5675-.7171.67751-1.2653 1.97251-1.4343 3.39688-.04.30875-.06.51813-.06.86656 0 .44844.05.81688.1397 1.15563.2487.86656.7768 1.38469 1.3943 1.38469.05 0 .0997 0 .1594-.01.4485-.06969.8566-.35875 1.1656-.81688.2788-.41843.4382-.85656.4382-1.52406 0-.6375-.1794-1.02594-.4982-1.35469l-.0993-.09968h-.1994c0 .00999.03.02999.0697.04968.3787.27907.5978.77719.5978 1.335 0 .14938-.02.29875-.05.44813-.1394.73718-.5775 1.305-1.1353 1.48437-.1297.03969-.2391.05969-.3488.05969-.4484 0-.7272-.29875-.9065-.6275-.2391-.43844-.3288-.91656-.3288-1.64375 0-.20906 0-.42813.01-.55781.1197-1.21531.4881-2.29094 1.0259-2.96844.3985-.48812.8169-.73722 1.3551-.73722.4181 0 .8862.1497 1.4043.42847.1197.05969.4581.24906.4682.25906-.3785 1.18532-.5879 2.42063-.6576 3.88469v.16937h-.3384v.40844h.3384v.27906c.0101.36844.0201.84657.0201 1.235 0 .27907-.01.51813-.01.63751-.0297.91656-.1294 1.46437-.3388 1.88281-.2391.498122-.6175.737185-1.1453.737185-.7472 0-1.305-.528125-1.285-1.245315zm4.7316-4.60187c.1593 0 .3187.10937.4184.19906.0697.04.0994.12969.0994.22906 0 .08969-.01.13969-.0597.18938-.0597.04968-.0797.04968-.4185.04968h-.3187v-.13937c.02-.25906.06-.52781.2791-.52781zM83.1784-71.79097c1.4544 0 1.9825-1.71343 2.1419-3.27718.0397-.37876.0397-.46844.0497-1.87282v-1.364685l.2291-.139375c.1197-.07.2987-.179375.3884-.229375.0897-.049688.1594-.099375.1594-.099375 0-.01-.1791-.33875-.1991-.34875 0 0-.04.02-.3287.189375l-.2491.149375v-3.74563h-.6075v.19938c-.04 1.10563-.3091 2.08187-.7572 2.75937-.3087.45813-.6575.74688-1.0659.886568-.1594.049687-.3388.079687-.5078.079687-.3288 0-.6675-.099688-.9366-.279062-.5478-.358443-.9062-1.095623-1.0459-2.141563-.0497-.37875-.0797-.74719-.0797-1.13562 0-.46813.02-.75719.0797-1.22532l.01-.13937c.05.02.0996.03.2093.03969.2488.04.4979.06999.7569.06999.3784 0 .7472-.04999 1.1156-.13968 1.0163-.25906 1.8529-.84656 2.361-1.65344.3187-.52813.5875-1.275.5875-2.04219 0-.99593-.6375-1.78283-1.7131-1.78283-.3288 0-.6079.0797-.8766.2091-.9763.4581-1.8728 1.62373-2.4803 3.22748-.1794.43813-.3588 1.01594-.4385 1.47406l-.0697-.03968c-.4084-.21907-.6971-.53781-.8168-.90657-.0597-.14937-.0697-.21906-.0697-.37843v-.13938c0-.39843.04-.72719.1394-1.13562.1993-.78688.5978-1.50438 1.1656-2.11186l.1094-.1194H80.23l-.1894.1891c-.2687.269-.4381.4681-.6275.76716-.4581.68719-.7172 1.47406-.7768 2.30093-.01.08969-.01.17938-.01.25907 0 .88656.5378 1.38437 1.1556 1.68344.0597.02968.1094.05968.1094.05968 0 .01-.0101.08969-.0201.17938-.0696.41843-.1093.84656-.1093 1.31469 0 1.08593.229 2.06218.6475 2.77937.4084.667187 1.0459 1.215313 2.0222 1.215313.0697 0 .1493 0 .219-.010001.8169-.079687 1.5241-.607812 2.0419-1.504372l.07-.12938v1.454378l-.1694.109687c-1.0359.717188-1.8528 1.484065-2.3909 2.241255-.4581.6575-.7072 1.41437-.7072 2.12156 0 1.12562.6178 2.13187 1.6834 2.13187zm1.9029-15.46c0 .06-.01.11969-.01.17938-.1594 1.99219-1.6338 3.26718-3.626 3.26718-.2691 0-.4981-.02968-.7672-.07968-.1394-.02969-.1494-.02969-.1494-.04969 0-.02.0201-.13937.0501-.26906.2787-1.38438.7968-2.71938 1.5537-3.60594.3487-.41844.9066-.87652 1.5241-.87652.9065 0 1.4247.56777 1.4247 1.43433zm-.3188 10.76813c-.01 1.25531-.01 1.42437-.04 1.81312-.1194 1.62344-.6075 2.47031-1.5637 2.47031-.3091 0-.5879-.12968-.8169-.34874-.2891-.30875-.4782-.72719-.4782-1.33469 0-.14938 0-.31875.0197-.41844.0897-.56781.3288-1.11563.7172-1.60375.5182-.6475 1.1956-1.285 2.0222-1.882813l.1397-.099374v1.404377zM90.9359-88.735c0 .3884.4581.54778.8565.63747l.02.16938c.04.27874.0697.56781.0697.84656 0 .27906-.0297.55781-.0697.83687-.0997.57782-.3087 1.19531-.5875 1.67344l-.04.07969v.09969l.01.09937.0797-.10937c.5478-.72719.8666-1.57407.9563-2.51032.01-.09968.01-.27875.01-.45812 0-.17938 0-.35875-.01-.45813-.01-.08968-.02-.16937-.03-.17937 0-.02 0-.02.05-.01.0397 0 .1393.01.249.01.6872 0 1.1653-.12969 1.6435-.38846l.1096-.06v.0697c-.01.03-.02.17938-.03.32876-.0896.93656-.1193 1.64375-.1193 2.67968 0 .81688.01 1.39469.0597 1.9425v.05969l-.0897.04c-.5878.22907-1.1653.53782-1.5838.85657-.7472.54781-1.1656 1.18531-1.275 1.9325-.02.09968-.03.23906-.03.37843 0 .90656.5081 1.623753 1.2053 1.852815.1694.059687.2691.069687.4982.069687.3387 0 .5178-.059687.7271-.169374.6872-.348438 1.1357-1.244998 1.265-2.559998.0397-.36844.0397-.57781.0397-1.44438v-.83656l.1497-.04c.1394-.04969.1991-.05969.2988-.08969v1.12563h.209v-.5975c0-.48813 0-.58781.01-.58781s.3588-.08969.4285-.11969c.02 0 .02.02.02.96625v.61781c0 .66719.0097.90625.0697 1.285.179 1.295.6871 2.131563 1.4443 2.380625.1791.059687.2888.069687.5378.069687 1.2154 0 1.972-.766874 1.972-1.862812 0-.98594-.6473-1.83281-1.6832-1.83281-.1094 0-.2191.01-.2988.03h-.03v.20906c.0897-.01.1497-.02.3091-.02.8766 0 1.3944.71719 1.3944 1.53406 0 .17938-.0297.35875-.0797.52813-.2091.617497-.7172 1.015935-1.5041 1.015935-1.1556 0-1.554-1.105625-1.554-2.510315 0-.32875 0-.40844.03-.73687.0497-.63782.0697-.93656.0797-1.51438l.01-.38843.1893-.07969c1.5938-.6375 2.53-1.49406 2.7791-2.56.0397-.17938.0697-.39844.0697-.5975 0-.90657-.4981-1.60371-1.1953-1.83311-.1894-.0697-.2791-.0797-.4982-.0797-.1793 0-.219 0-.3287.02-1.1456.2491-1.5837 1.50406-1.7034 2.94843-.0097.09969-.0097.41844-.0097 1.08594l-.01.94625-.04.02c-.02 0-.1294.02969-.2291.05969l-.1794.05968v-1.13531h-.209v1.18532c-.0897.03968-.4285.10937-.4485.12937-.0097 0-.0097-.39844-.0097-2.65969l.0097-2.66938h-.6075l-.0997.0697c-.4184.2687-1.0159.4681-1.6334.4681-.1397 0-.2691-.01-.4084-.03h-.05l-.0297-.1294c-.05-.1893-.1297-.4384-.1694-.5378-.0797-.1397-.1794-.249-.3784-.249-.3288 0-.6078.3384-.6078.6275zm.7371.1793c0 .0197-.1693-.05-.209-.0796-.05-.04-.0797-.0997-.0797-.1594 0-.06.0497-.1694.1094-.1694.0697 0 .1793.3484.1793.4084zm7.69 1.61348c0 .35875-.0796.6575-.229.94657-.1894.36843-.4881.69718-.8966 1.00593-.3487.26907-.8365.52813-1.3847.75719-.0696.02969-.1293.04969-.1293.04969-.01 0-.01-.11938-.02-.25906-.02-.51782-.1094-1.13563-.1094-1.66344 0-.22906.0197-.43844.0397-.6375.0897-.80688.3487-1.34469.7572-1.61376.189-.1294.4281-.1894.6671-.1894.06 0 .1197 0 .1794.01.6675.1197 1.1256.79691 1.1256 1.59378zm-7.7796 6.72407c0-.14938.02-.29907.0496-.45844.0997-.56781.5082-1.10563.9466-1.43438.3484-.27875.8166-.55781 1.3447-.77687.1194-.04969.2191-.08969.2391-.09969.01 0 .02-.01.02-.01.0396.29906.0696.7075.1193 1.06594.05.46812.05.53781.05.90656 0 .5875-.03.89656-.1793 1.30469-.2191.677497-.6179 1.075935-1.275 1.075935-.7969 0-1.315-.786875-1.315-1.573745zM104.665-88.735c0 .3884.458.54778.856.63747l.02.16938c.04.27874.07.56781.07.84656 0 .27906-.03.55781-.07.83687-.1.57782-.309 1.19531-.587 1.67344l-.04.07969v.09969l.01.09937.079-.10937c.548-.72719.867-1.57407.957-2.51032.01-.09968.01-.27875.01-.45812 0-.17938 0-.35875-.01-.45813-.01-.08968-.02-.16937-.03-.17937 0-.02 0-.02.05-.01.039 0 .139.01.249.01.707 0 1.175-.13969 1.673-.40846.07-.04.129-.0697.139-.0697v4.02441c0 2.91844 0 4.05406-.01 4.15375-.049.67719-.199 1.095622-.458 1.364685-.05.039688-.109.099688-.149.119375-.179.119687-.408.199375-.648.199375-.607 0-1.175-.528125-1.444-1.354685-.06-.20938-.1-.40844-.1-.61781 0-.51782.209-.90625.538-1.04594.07-.02969.2-.05969.259-.05969h.03v-.20906h-.03c-.119 0-.298.04968-.428.10937-.438.21938-.717.77719-.717 1.38469 0 .75719.338 1.404688.817 1.803125.298.249063.567.388437 1.035.388437.19 0 .28-.009999.449-.059687.767-.219375 1.225-.946562 1.384-2.221565.03-.18906.04-.27875.06-.57781.01-.09938.01-1.225.02-4.00437v-3.8647h-.608l-.099.0697c-.419.2687-1.016.4681-1.634.4681-.139 0-.269-.01-.408-.03h-.05l-.03-.1294c-.05-.1893-.129-.4384-.169-.5378-.08-.1397-.18-.249-.379-.249-.328 0-.607.3384-.607.6275zm.448-.0597c0-.06.05-.1694.109-.1694.07 0 .19.4084.18.4084-.12 0-.289-.1096-.289-.239zM113.542-88.735c0 .3884.458.54778.856.63747l.02.16938c.04.27874.07.56781.07.84656 0 .27906-.03.55781-.07.83687-.099.57782-.308 1.19531-.587 1.67344l-.04.07969v.09969l.01.09937.08-.10937c.547-.72719.866-1.57407.956-2.51032.01-.09968.01-.27875.01-.45812 0-.17938 0-.35875-.01-.45813-.01-.08968-.02-.16937-.03-.17937 0-.02 0-.02.05-.01.04 0 .139.01.249.01.707 0 1.175-.13969 1.673-.40846.07-.04.13-.0697.14-.0697v10.090658l-.17.109687c-1.036.717188-1.852 1.484065-2.39 2.241255-.458.6575-.707 1.41437-.707 2.12156 0 1.12562.617 2.13187 1.683 2.13187 1.454 0 1.982-1.71343 2.142-3.27718.04-.37876.04-.46844.049-1.87282v-1.364685l.23-.139375c.119-.07.298-.179375.388-.229375.09-.049688.159-.099375.159-.099375 0-.01-.179-.33875-.199-.34875 0 0-.04.02-.329.189375l-.249.149375V-88.9541h-.607l-.1.0697c-.418.2687-1.016.4681-1.633.4681-.14 0-.269-.01-.409-.03h-.05l-.029-.1294c-.051-.1893-.13-.4384-.17-.5378-.08-.1397-.179-.249-.378-.249-.329 0-.608.3384-.608.6275zm.737.1793c0 .0197-.169-.05-.209-.0796-.05-.04-.08-.0997-.08-.1594 0-.06.05-.1694.11-.1694.069 0 .179.3484.179.4084zm2.64 12.07286c-.01 1.25531-.01 1.42437-.04 1.81312-.12 1.62344-.608 2.47031-1.564 2.47031-.309 0-.588-.12968-.817-.34874-.289-.30875-.478-.72719-.478-1.33469 0-.14938 0-.31875.02-.41844.09-.56781.329-1.11563.717-1.60375.518-.6475 1.195-1.285 2.022-1.882813l.14-.099374v1.404377zM123.101-88.735c0 .3884.458.54778.856.63747l.02.16938c.04.27874.07.56781.07.84656 0 .27906-.03.55781-.07.83687-.1.57782-.309 1.19531-.587 1.67344l-.04.07969v.09969l.01.09937.079-.10937c.548-.72719.867-1.57407.957-2.51032.01-.09968.01-.27875.01-.45812 0-.17938 0-.35875-.01-.45813-.01-.08968-.02-.16937-.03-.17937 0-.02 0-.02.05-.01.039 0 .139.01.249.01.707 0 1.175-.13969 1.673-.40846.07-.04.129-.0697.139-.0697v4.7116h-.02c-.219.06968-.448.35874-.448.6275 0 .26906.229.55781.448.6275h.02v1.52406c0 .56781-.01.76719-.049 1.04593-.06.36875-.15.62782-.289.84688-.18.26875-.528.478125-.927.478125-.607 0-1.175-.528125-1.444-1.354685-.06-.20938-.1-.40844-.1-.61781 0-.51782.209-.90625.538-1.04594.07-.02969.2-.05969.259-.05969h.03v-.20906h-.03c-.119 0-.299.04968-.428.10937-.438.21938-.717.77719-.717 1.38469 0 .75719.338 1.404688.816 1.803125.299.249063.568.388437 1.036.388437.19 0 .279-.009999.449-.059687.767-.219375 1.225-.946562 1.384-2.221565.06-.41812.07-.6275.08-1.32469v-.60781c.12-.01.179-.02969.309-.07968.179-.05969.329-.12938.538-.26876.02-.00999.02-.00999.059.06969.16.26875.28.5975.359.97625.06.32875.12 1.07563.179 1.38438.19 1.165622.598 1.89281 1.186 2.081872.139.040001.259.05.408.05.319-.02.568-.119687.787-.348749.279-.278751.448-.687193.448-1.245003 0-.24906-.01-.37875-.069-.60781-.15-.57781-.508-1.09562-.996-1.43438l-.07-.04968-.01.09968v.09938c.388.48813.727.98625.727 1.80312 0 .75688-.339 1.295005-.936 1.295005-.857 0-.957-1.155625-.957-2.301255v-.28875c0-.28874-.01-.36843-.059-.6075-.1-.47812-.309-.94656-.578-1.26531l-.07-.07969.09-.11937c.348-.45812.548-1.02594.637-1.74312.01-.12969.01-.21938.01-.56782v-.71719c0-.45843.01-.63781.05-.89656.09-.6575.329-1.08593.707-1.26533.13-.0497.289-.0894.439-.0894.418 0 .747.2788.876.65723l.1.01h.109l-.01-.03968c-.069-.54785-.507-1.02595-1.145-1.02595-.159 0-.329.0297-.458.0697-.747.2687-1.186 1.23499-1.255 2.81906-.01.12937-.01.29875-.01.38843 0 .90625-.18 1.67344-.518 2.18157-.239-.16938-.578-.31906-.877-.35875v-5.10001h-.608l-.099.0697c-.419.2687-1.016.4681-1.634.4681-.139 0-.269-.01-.408-.03h-.05l-.03-.1294c-.05-.1893-.13-.4384-.169-.5378-.08-.1397-.18-.249-.379-.249-.328 0-.607.3384-.607.6275zm.737.1793c0 .0197-.17-.05-.209-.0796-.05-.04-.08-.0997-.08-.1594 0-.06.05-.1694.109-.1694.07 0 .18.3484.18.4084zm3.825 5.4088c0 .00999-.12.10968-.219.17937-.12.07969-.289.16938-.349.16938-.01 0-.01-.05969-.01-.35876v-.34843h.03c.02.01.07.01969.11.03969.099.04999.438.26906.438.31875zm-1.186-.19907v.38844c-.039-.05969-.049-.08969-.049-.19938 0-.05968.01-.18906.049-.18906zM138.337-78.235967c.628 0 1.116-.209063 1.554-.617501.07-.06.209-.199374.259-.279062l.12.099687c.547.458126 1.065.697188 1.633.776875.07.01.209.020001.339.020001.129 0 .259-.010001.338-.020001.887-.139374 1.585-.677187 1.843-1.434372.07-.20906.11-.42844.11-.6475 0-.32875-.08-.6275-.219-.84657-.219-.31874-.598-.50812-.986-.50812-.488 0-.877.28875-.927.70719v.06968h.209v-.05968c.03-.28875.299-.47813.638-.47813.518 0 .926.38844.926.97625 0 .97625-.797 1.66344-1.633 1.812815-.08.01-.2.01-.319.01-.12 0-.249 0-.329-.01-.388-.059688-.727-.209063-1.105-.458125-.14-.089688-.369-.26906-.419-.33875l.07-.10938c.329-.59781.528-1.39468.528-2.31125 0-.45812-.05-.91624-.15-1.35468l-.029-.12938h.219c1.583-.04969 2.749-.98625 3.237-2.16156.179-.39844.269-.77688.269-1.335 0-.91625-.339-1.59377-.887-1.95217-.288-.1894-.667-.2988-1.016-.2988-.288 0-.537.0597-.776.1791-.389.1894-.748.5281-1.036.97625-.459.66749-.718 1.71343-.718 2.73937 0 .45813.05 1.02594.15 1.38469l-.03-.01c-.379-.06969-.658-.15938-.976-.31875-1.435-.69719-2.381-2.39063-2.501-4.42286-.01-.0996-.01-.219-.01-.279v-.0894h-.209v.2091c.01.3287.04.59747.09.90653.239 1.59375.996 2.94844 2.062 3.72532.448.32874.956.55781 1.504.6675.08.02.15.02999.15.03968.019.02.089.57782.119.90657.01.11968.02.34875.02.56781 0 .83687-.13 1.47437-.359 2.03219l-.06.11937c-.01 0-.239-.24906-.368-.39844-.04-.04968-.249-.29875-.458-.53781-.199-.24906-.399-.46813-.429-.50812-.209-.18907-.428-.29875-.796-.29875-.09 0-.19.01-.249.02-.668.13937-1.226.71718-1.226 1.55374 0 .876568.737 1.713443 1.833 1.713443zm2.53-5.558433h-.179l-.02-.13938c-.08-.42844-.129-.88656-.129-1.325 0-.39844.019-.66719.089-1.01594.249-1.52406 1.096-2.58998 2.032-2.58998.369 0 .628.1197.897.3287.348.2791.548.75722.548 1.38472 0 1.83281-1.465 3.28719-3.238 3.35688zm-3.964 3.905c0-.12969.02-.25907.059-.38876.13-.40812.508-.78687 1.046-.78687.239 0 .419.08969.568.20938.03.02968.189.20906.359.40843.358.42813.538.6375.737.84656.08.07969.149.15938.149.15938.02.03-.119.209063-.269.35875-.308.30875-.657.487812-1.185.487812-.817 0-1.464-.527812-1.464-1.294682zM150.804-81.30409c.219 0 .438.12968.469.33875v.04968h.209v-.06968c-.04-.32875-.339-.5875-.787-.5875-.09 0-.18 0-.239.01969-.498.11968-.797.54781-.797 1.20531 0 .24906.04.52812.109.78718.14.627505.588 1.215005 1.096 1.334692.07.020001.11.020001.239.020001.18 0 .269-.020001.448-.089688.399-.159375.737-.508125 1.017-1.035935.448-.86688.756-2.31125.876-4.17375.01-.17938.02-.35875.03-.40844.07.47812.438 5.628125.458 5.647812v.030001h.309c.289 0 .299 0 .299-.020001 0-.029687.069-.707187.099-.94625.209-1.882812.548-3.735312.997-5.548442.099-.36843.229-.87656.239-.87656 0 0-.01.08969-.01.19938-.04.44812-.04.68719-.04 1.275 0 .72719.01 1.11562.079 1.71312.18 1.82313.658 3.16781 1.335 3.785315.229.209375.478.33875.737.398437.07.01.17.020001.269.020001.07 0 .14-.010001.2-.010001 1.603-.159375 2.42-1.932502 2.659-3.655622.04-.26906.06-.44844.06-.75719 0-.79688-.189-1.54406-.538-2.10187-.279-.45813-.757-.88657-1.394-.88657-.489 0-.907.21938-1.146.49813-.319.37843-.478.92656-.518 1.85281 0 .12938-.01.37844-.01.6275s.01.51813.01.6575v.19937h.199v-1.285c0-1.18562.289-2.12187 1.375-2.12187.1 0 .199.02.299.03969.797.19937 1.315 1.23531 1.315 2.56031 0 .17906 0 .34844-.01.44813-.06.50812-.2 1.10562-.369 1.58375-.319.86656-.747 1.44437-1.295 1.733432-.259.139376-.558.209063-.837.209063-.149 0-.278-.02-.408-.059688-.707-.239062-1.195-1.085937-1.435-2.510307-.109-.61751-.149-1.245-.149-2.09188 0-2.02219.319-4.07406.817-5.48842l.06-.1594h-.608l-.04.0994c-.08.229-.299.84686-.378 1.11561-.767 2.32093-1.305 4.5625-1.674 7.02281-.03.19906-.06.33875-.06.33875 0-.01-.149-1.9425-.338-4.29344l-.339-4.28313h-.608v.1494c0 .189.01.65717.04 1.51404.06 1.44438.07 2.00219.07 2.71938 0 2.42063-.229 4.02438-.707 4.98062-.269.527818-.608.856567-1.026.956255-.12.03-.239.039687-.339.039687-.07 0-.14 0-.199-.019687-.508-.129688-.857-.806875-.857-1.723435 0-.52781.249-.96625.737-.96625zM167.383-81.30409c.219 0 .438.12968.468.33875v.04968h.209v-.06968c-.04-.32875-.339-.5875-.787-.5875-.09 0-.179 0-.239.01969-.498.11968-.797.54781-.797 1.20531 0 .24906.04.52812.11.78718.139.627505.587 1.215005 1.095 1.334692.07.020001.11.020001.239.020001.13 0 .17 0 .249-.020001.289-.079687.509-.209375.738-.438437.627-.627495 1.046-1.862495 1.255-3.765315.099-.82656.179-2.07187.179-3.1975 0-.04969.976 7.361252.976 7.361252v.030001h.608v-.199376c0-1.015937-.09-3.097807-.09-4.333127 0-1.30468.06-2.38062.229-3.25719.279-1.40437.807-2.21124 1.614-2.47034.199-.0597.428-.0997.647-.0997.219 0 .449.04.628.0997.657.2191 1.096.8766 1.295 1.91253.08.37844.11.83688.11 1.43438 0 1.21531-.09 1.89281-.319 2.37094-.239.49781-.588.77687-1.236.77687-1.025 0-1.583-1.06594-1.583-2.15156 0-.34875.059-.71719.169-1.07594.02-.06969.04-.13937.05-.13937 0-.02-.01-.02-.1-.02h-.109l-.04.13937c-.13.39844-.199.80688-.199 1.20531 0 .42844.079.83688.229 1.20531.318.78719.926 1.24532 1.633 1.24532 1.515 0 1.913-1.65375 1.913-3.72563 0-1.43437-.408-2.61969-1.106-3.20753-.348-.2887-.737-.4281-1.205-.4281-.07 0-.15 0-.219.0097-1.455.1297-2.291 1.38468-2.61 3.885-.11.83687-.149 1.62374-.159 2.94843v.77719c-.389-2.53031-.768-5.07031-1.146-7.62032h-.418v.1494c0 .189.01.65717.04 1.51404.059 1.44438.069 2.00219.069 2.71938 0 2.42063-.229 4.02438-.707 4.98062-.269.527818-.608.856567-1.026.956255-.12.03-.239.039687-.339.039687-.069 0-.139 0-.199-.019687-.508-.129688-.857-.806875-.857-1.723435 0-.52781.249-.96625.738-.96625z"/><path fill="none" stroke="#000" stroke-miterlimit="10" stroke-width="0.1417" d="M4.1445-54.3242H172.422M4.1445-58.6172H172.422M4.1445-62.9063H172.422M4.1445-65.0508H172.422M4.1445-49.1797H172.422M4.1445-47.8906H172.422"/><path d="M7.73191-65.0344c-1.31469.1097-2.38063 1.03625-3.028127 2.62-.368437.90625-.567812 2.01219-.567812 3.07781 0 .37875.03.75719.079687 1.11594.239063 1.74312.996252 3.057811 2.061872 3.595936.37875.199062.6975.29875 1.25532.29875.13937 0 .28875-.01.37843-.02.6175-.089688 1.13563-.348438 1.59375-.806875.96625-.966251 1.50407-2.739371 1.50407-4.651871 0-.76688-.07969-1.39438-.23907-2.02219-.30875-1.265-.92625-2.13156-1.76312-2.49031-.32844-.13939-.68719-.20909-1.04594-.20909-.23906 0-.46812.03-.69719.0897-.81687.21907-1.57375.91657-1.9225 1.76314l-.06968.13937c0-.01.08968-.22906.13937-.35844.24906-.54781.58781-1.02593 1.01625-1.38468.42813-.33879.90625-.52779 1.45406-.55779h.12969v-.2091h-.08969c-.04968 0-.12937.0097-.18937.0097zm2.64969 6.00687c-.14938 2.12157-.79688 3.55594-1.85282 4.074066-.29875.149375-.6275.219062-.96625.219062-.30875 0-.6175-.059687-.89625-.179375-.78718-.32875-1.38468-1.175313-1.683434-2.400623-.169375-.6475-.229375-1.235-.229375-2.02219 0-.90625.089687-1.68344.299062-2.49031.029688-.10938.049688-.20906.049688-.21906h.01c0 .01-.01.05-.02.10968-.089688.34844-.139375.75688-.139375 1.15532 0 1.10593.259064 1.88281.727184 2.74937l.07969.12969h.09969c.04969 0 .09937 0 .09937-.01 0 0-.02968-.05-.05968-.10969-.02969-.05969-.09969-.19906-.15938-.30875-.36844-.76719-.56781-1.58375-.56781-2.38062 0-.26907.02-.53813.06969-.79719.21937-1.29469 1.00625-2.47031 2.35093-2.62969.04-.01.08969-.01.14938-.01 1.00625 0 1.57406.43844 1.99219 1.08594.43843.72719.6675 1.83281.6675 3.24719 0 .23906-.02.62781-.02.78718zm-5.13-3.45656s.01-.01.01-.02 0-.02.01-.02c0 .01-.02.04-.02.04zM20.7779-61.74721v.12968c.02.69719.0697 1.235.2194 1.97219.1691.88656.2487 1.49438.2487 2.23125 0 .89656-.169 1.58406-.4978 2.04219-.279.388436-.6675.637498-1.325.637498-.1693 0-.209 0-.3187-.02-.6375-.139375-1.1156-.617498-1.255-1.264998-.02-.10969-.02-.14938-.02-.31875 0-.21906.01-.31875.0797-.51781.02-.06.04-.11969.0497-.12969 0-.02-.0097-.02-.0994-.02h-.1097c-.0797.24906-.1694.50812-.1694.78719 0 1.125621.9266 1.892496 1.9025 1.892496.6975 0 1.1856-.279063 1.5541-.766875.4581-.597811.6972-1.574061.6972-2.799371 0-.5875-.0497-1.235-.1494-1.82282-.1494-1.08562-.2191-2.03218-.2191-3.03812 0-.6475.03-1.17531.0797-1.72345l.02-.1891h.0697c.1394 0 .4981.0597.7072.1194.8469.24909 1.4744.76721 1.7331 1.4444.0897.21937.1397.46812.1397.6975 0 .6475-.3984 1.10562-1.0659 1.10562-.5778 0-1.016-.38843-1.076-.97625v-.08968h-.209v.09968c.03.43813.209.80688.5278 1.04594.249.20906.5181.31875.9465.31875.1094 0 .2291 0 .3088-.02.6872-.12937 1.1753-.6475 1.1753-1.47406 0-.16938-.02-.35875-.0697-.54813-.1294-.52781-.4681-1.04593-.8865-1.36468-.6075-.48809-1.3947-.78689-2.3707-.78689-.0997 0-.2093.01-.269.01-1.275.0797-2.55.6675-3.4566 1.60376-.8269.86656-1.3547 1.98219-1.4841 3.16781-.02.20907-.04.44813-.04.6375 0 .12938.01.22907.02.30875.1394.80688.6972 1.43438 1.4544 1.62375.1294.02969.3188.05969.5178.05969.5578 0 1.086-.20937 1.4944-.59781.4381-.41844.7072-1.03594.7072-1.64344 0-.58781-.2591-1.14562-.5878-1.47437l-.0697-.07969h-.1994l.1097.10969c.3588.36843.5578.76687.5578 1.32468 0 .57782-.2787 1.17563-.7272 1.54407-.3484.28875-.7568.42843-1.1953.42843-.8865 0-1.4744-.54812-1.6434-1.295-.02-.11968-.02-.13937-.02-.38843 0-1.18563.4381-2.35094 1.2153-3.2575.7469-.87657 1.7928-1.45439 2.9284-1.62379.1197-.0197.3785-.0397.4485-.0397h.0197c-.2391.9363-.3985 1.93255-.3985 2.92849zM38.4414-55.64096c0-.37844-.0993-.6375-.2787-.87657-.1297-.18906-.3588-.38843-.5678-.48812-.0897-.03969-.2491-.09938-.2791-.09938-.01 0-.01.02969-.01.09938 0 .08969 0 .10969.01.10969s.06.02.1197.04968c.4084.20938.6275.59782.6275.99625 0 .707191-.6075 1.215316-1.3547 1.215316-.4384 0-.6575-.099688-.9662-.269063-.1494-.079687-.3488-.219062-.4582-.28875l.0597-.069687c.8966-1.006246 1.3944-2.679686 1.3944-4.542496 0-.76688-.0797-1.39438-.2391-2.02219-.3087-1.265-.9262-2.13156-1.7631-2.49031-.3284-.13939-.6872-.20909-1.0459-.20909-.2391 0-.4681.03-.6972.0897-.8169.21907-1.5738.91657-1.9225 1.76314l-.0697.13937c0-.01.0897-.22906.1394-.35844.249-.54781.5878-1.02593 1.0162-1.38468.4282-.33879.9063-.52779 1.4541-.55779h.1297v-.2091h-.0897c-.0497 0-.1294.0097-.1894.0097-1.3147.1097-2.3806 1.03625-3.0281 2.62-.3684.90625-.5678 2.01219-.5678 3.07781 0 .37875.03.75719.0797 1.11594.239 1.74312.9962 3.057811 2.0618 3.595936.3788.199062.6975.29875 1.2554.29875.7468 0 1.2153-.209063 1.6934-.577813.0497-.039687.0994-.069687.0994-.069687s.0797.069687.1693.139375c.6375.577812 1.066.816875 1.6138.816875.8866 0 1.6037-.677188 1.6037-1.623746zm-2.3309-3.38657c-.0994 1.43438-.4281 2.56-.9662 3.29688-.0697.09969-.1991.25906-.2191.26906-.3188-.23906-.7569-.53781-.9863-.6475-.2787-.12937-.5478-.19906-.8068-.19906-.1791 0-.3485.03969-.5078.08969v.20906c.1493-.04969.2787-.08969.5178-.08969.1297 0 .1993 0 .259.01.3685.07969.7272.27875 1.1953.69719.0697.06.1297.109686.1297.119686 0 .01-.1497.129375-.259.199062-.3388.219375-.7572.33875-1.1853.33875-.2991 0-.6079-.059687-.8866-.179375-.7872-.32875-1.3847-1.175313-1.6834-2.400623-.1694-.6475-.2294-1.235-.2294-2.02219 0-.90625.0897-1.68344.299-2.49031.0297-.10938.0497-.20906.0497-.21906h.01c0 .01-.01.05-.02.10968-.0897.34844-.1393.75688-.1393 1.15532 0 1.10593.259 1.88281.7271 2.74937l.0797.12969h.0997c.0497 0 .0994 0 .0994-.01 0 0-.0297-.05-.0597-.10969-.0297-.05969-.0997-.19906-.1594-.30875-.3684-.76719-.5678-1.58375-.5678-2.38062 0-.26907.02-.53813.0697-.79719.2194-1.29469 1.0063-2.47031 2.3509-2.62969.04-.01.0897-.01.1494-.01 1.0063 0 1.5741.43844 1.9922 1.08594.4384.72719.6675 1.83281.6675 3.24719 0 .23906-.02.62781-.02.78718zm-5.13-3.45656s.01-.01.01-.02 0-.02.01-.02c0 .01-.02.04-.02.04zM48.2256-61.7769v.15937c.02.69719.0697 1.235.2194 1.97219.169.88656.2487 1.49438.2487 2.23125 0 .89656-.1691 1.58406-.4978 2.04219-.2791.388436-.6675.637498-1.325.637498-.1694 0-.2091 0-.3188-.02-.6375-.139375-1.1156-.617498-1.255-1.264998-.02-.10969-.02-.14938-.02-.31875 0-.21906.01-.31875.0797-.51781.02-.06.04-.11969.0497-.12969 0-.02-.0097-.02-.0994-.02h-.1096c-.0797.24906-.1694.50812-.1694.78719 0 1.125621.9265 1.892496 1.9025 1.892496.6975 0 1.1856-.279063 1.554-.766875.4582-.597811.6972-1.574061.6972-2.799371 0-.5875-.0497-1.235-.1493-1.82282-.1494-1.02593-.2191-1.98218-.2191-2.93843 0-.40844.01-.82688.0397-1.24532.01-.26875.05-.69722.06-.75692v-.03l.0797.01c.7968.0497 1.4443.2888 1.9822.71724.04.04.1293.11968.209.18937.3788.38844.5978.84656.6775 1.39438.01.06968.02.19937.02.31875 0 .11968-.01.24906-.02.30875-.0997.55812-.3684.98625-.8269 1.27531l-.0896.05969-.1394-.12969c-.2491-.24875-.5178-.44813-.7569-.5675-.2094-.09969-.3787-.14969-.5281-.14969-.2591 0-.4085.14969-.4085.43844 0 .43812.3885.72719 1.0163.75687.2091 0 .4581-.04968.6572-.07968 0 0 .03.03.05.07.3287.55781.5078 1.18531.5078 1.73312 0 .11969-.0097.23906-.0297.34875-.05.31875-.1097.67719-.1097 1.02594 0 1.11562.4285 2.051873 1.086 2.420623.249.139375.5278.219063.8068.219063 1.016 0 1.6435-.886563 1.6435-1.763126 0-.99625-.6772-1.67344-1.4744-1.87281-.0597-.01-.1394-.02969-.1791-.02969l-.06-.01v.19906l.1097.04c.4681.12938.8369.49813 1.016.87657.1096.23906.1693.39843.1693.74718 0 .846566-.5678 1.404378-1.2153 1.404378-.9562 0-1.245-.976248-1.245-2.181558 0-.31875.0497-.79688.0497-1.16532 0-.16937-.0097-.30875-.0397-.48812-.0897-.54781-.3487-1.12563-.7272-1.60375-.03-.04-.0597-.06969-.0597-.07969 0 0 .0497-.02.1094-.05.7672-.37844 1.285-1.11562 1.285-2.17125 0-.38875-.0897-.74719-.2587-1.07594-.4785-.87657-1.4544-1.44437-2.64-1.57377-.0994-.01-.3685-.01-.5578-.01h-.1791c-1.5741.1094-2.8888.86659-3.7256 1.74315-.8269.85656-1.3347 1.9125-1.4841 3.04812-.02.21907-.04.45813-.04.6575 0 .12938.01.23907.02.31875.1694.98625.9263 1.68344 1.9722 1.68344.5678 0 1.0859-.20937 1.4944-.59781.4381-.41844.7072-1.03594.7072-1.64344 0-.58781-.2591-1.14562-.5879-1.47437l-.0696-.07969h-.1994l.1097.10969c.3587.36843.5578.76687.5578 1.32468 0 .57782-.2788 1.17563-.7272 1.54407-.3484.28875-.7569.42843-1.1953.42843-.8866 0-1.4744-.54812-1.6435-1.295-.02-.11968-.02-.13937-.02-.38843 0-.74719.1694-1.48438.5079-2.18157.249-.50812.5581-.93656.9565-1.34468.4581-.44844.9663-.79719 1.5538-1.03625.4284-.18909.9762-.31879 1.4047-.34849.0396-.01.0993-.01.1393-.02h.0597c-.239.83692-.4084 1.92255-.4084 2.9088zm1.285 1.05594c0-.20938.06-.38844.249-.38844.04 0 .0697.00969.1097.01969.2191.07968.5078.34875.7669.70718l.06.07969c-.1097.07-.3787.10969-.5381.10969-.3685 0-.6475-.15938-.6475-.52781zM62.2934-59.81471h-.0697c-.1197-.01969-.3784-.05969-.4881-.08969-.6972-.18906-1.265-.5875-1.4044-1.265-.02-.09969-.02-.12938-.02-.39844 0-1.00594.2591-2.04187.7569-2.95846.0697-.1494.239-.4184.299-.5178h-.2093l-.0897.1194c-.6872.89655-1.0956 1.98217-1.1653 3.1178-.01.10969-.01.20937-.01.29875 0 .23906.02.39875.0897.58781.259.82688 1.1653 1.38469 2.2512 1.48438.2291.01968.1991 0 .2788.16937.1993.44813.4684.90625.7871 1.33469.3785.50812.6075.95625.7369 1.45437.06.21907.0897.46813.0897.66719 0 .637813-.3287 1.085938-.9562 1.085938-.0797 0-.1594-.01-.2191-.03-.1994-.049687-.3588-.139375-.7272-.408437-.3784-.268751-.5778-.368441-.8069-.418121-.0497-.01-.0997-.01-.1493-.01-.1494 0-.3188.02968-.4485.08968-.3884.189066-.7669.697191-.9262 1.175316h.1097c.0896 0 .0993 0 .1093-.02.1594-.468125.6178-.856563 1.1257-.856563.0796 0 .1693.01.249.03.2191.059688.3688.139375.7672.398438.2788.189062.4084.26875.5278.31875.1794.089375.3488.129375.5181.129375.3685 0 .6275-.129375.8566-.33875.2888-.29875.4381-.697186.4381-1.304996 0-.13938-.0097-.28875-.0197-.38844-.0796-.53781-.269-1.07563-.5578-1.58375-.03-.04969-.1097-.16938-.1793-.27875-.2691-.40844-.4782-.78719-.6275-1.13563l-.05-.09968c.269-.04969.6975-.13938.9962-.24907 1.275-.45812 2.2213-1.37468 2.5103-2.45031.0697-.24906.1094-.51812.1094-.77719 0-.28875-.0497-.56781-.1394-.82656-.259-.78721-.9362-1.37471-1.9025-1.39471-.1097 0-.229.01-.279.01-.9363.1094-1.7432.7969-2.1616 1.87252-.1991.50813-.3088 1.07594-.3088 1.66375 0 .57782.1394 1.275.3088 1.79282zm4.0641-3.12782c0 .20938 0 .24907-.0197.38875-.1894.84657-.6275 1.47407-1.3947 1.99219-.5178.33844-1.1556.5975-1.7731.70719-.0797.01-.1194.02-.1394.02-.01 0-.02-.01-.02-.01-.01-.02-.0897-.24906-.1294-.38844-.1494-.52812-.2291-1.06594-.2291-1.56406 0-1.08563.3685-2.05188.996-2.57.3187-.2691.6875-.4084 1.0659-.4084.0697 0 .1394 0 .2091.01.8965.1293 1.4344.77684 1.4344 1.82277zM73.7357-59.8744c.9762 0 1.6437-.6475 1.7034-1.49406v-.10969H75.23v.09969c-.05.6575-.6078 1.19531-1.3947 1.19531-.279 0-.5478-.06969-.7868-.20906-.4882-.28907-.7272-.72719-.7272-1.48438 0-.35844.0297-.6475.1094-.95625.289-1.14562.9862-1.81286 1.9028-1.81286.4381 0 .7668.1294 1.1056.41817.2987.24907.5778.62782.9066 1.23532l.0993.16937-.0893.16938c-.5582 1.18531-.8966 2.61968-.8966 3.855 0 1.235.3087 2.21125.8366 3.01812.4384.687501 1.0359 1.155626 1.7034 1.344688.2291.069688.4184.099688.6575.099688h.0997c.9262 0 1.5637-.577813 1.7031-1.294996.02-.08969.03-.18907.03-.28875 0-.19938-.0397-.39844-.1194-.58782-.1993-.53781-.7075-.96625-1.4543-.96625-.2094 0-.3091.01-.4782.06969-.2193.06-.4981.22906-.6278.39844h.1994c.2191-.15938.4981-.26875.7869-.26875.7072 0 1.275.54781 1.275 1.30469 0 .07968 0 .15937-.01.21937-.1094.488126-.4882.866563-.996.985938-.0997.02-.1297.02-.3087.02-.2891 0-.4981-.029687-.7472-.129375-.7672-.289062-1.3747-1.065933-1.6934-2.171563-.1694-.55781-.2491-1.14562-.2491-1.78312 0-1.22532.2291-2.32094.5878-3.26719l.0597-.17938.1694.32875c.3087.5975.4284.79688.6375 1.01594.3684.36875.8368.58781 1.4543.58781 1.3347 0 2.4007-1.08593 2.4007-2.45062 0-1.255-.9463-2.24125-2.1816-2.24125-.5178 0-1.0159.1794-1.4841.5678-.0696.04-.1893.15939-.279.23907-.2291.22938-.4085.45844-.5975.74719l-.0897.12938-.0997-.14938c-.4481-.68719-1.0659-1.37466-1.9525-1.53406-.0797-.0097-.2591-.0097-.3984-.0097h-.1494c-.8566.0994-1.5341.6572-1.9325 1.60376-.1991.46813-.3088 1.04594-.3088 1.59375 0 1.10563.6872 1.97219 1.8329 1.97219zm5.369-.94625c-.4381 0-.8465-.18938-1.0956-.43844-.1594-.16937-.1794-.19906-.6078-.96625-.1194-.21906-.2588-.45812-.2988-.54781l-.0897-.14938c.1894-.32875.4085-.67718.6375-.93625.4085-.44843.8669-.70722 1.345-.76722.0597 0 .1294-.01.2091-.01.0797 0 .1494.01.2091.01.8568.1197 1.564.84691 1.564 1.83285 0 1.09594-.8368 1.9725-1.8728 1.9725zM89.1668-60.68128v-.07968h-.2094v.05968c-.0497.40844-.4281.6575-.8566.6575-.1694 0-.3487-.03968-.5181-.11937-.4681-.22906-.6872-.70719-.6872-1.41469 0-.33844.03-.80687.0697-1.11562.1394-1.02594.4781-1.64344 1.0359-1.87254.1794-.07.4085-.1097.6375-.1097 1.2453 0 1.5541.9463 1.5541 2.2513 0 .21906-.01.43812-.02.55781-.0397.6275-.0997 1.07594-.2691 2.31094-.219 1.51406-.2787 2.11187-.2787 2.65969 0 .22906 0 .29875.02.42843.1494 1.13563.9162 2.141566 2.1115 2.141566.6375 0 1.2353-.34875 1.5541-.906563l.0397-.069687.06.089687c.3287.478125.8465.886563 1.5837.886563.4982 0 .9863-.209063 1.3347-.6075.2891-.33875.4485-.757186.4485-1.195626 0-.19906-.03-.39844-.0997-.5975-.2391-.73719-.9066-1.285-1.7731-1.285-.0697 0-.1294.01-.1494.01h-.03v.20906h.1097c.8168.05 1.524.6775 1.524 1.63375 0 .47813-.1493.78688-.4184 1.045941-.2291.229062-.4681.368437-.8766.368437-.1793 0-.189 0-.2987-.029687-.5181-.129688-.9266-.587811-1.086-1.205311-.0396-.14969-.1193-.6675-.1593-1.07594-.0797-.6675-.1194-1.315-.1294-2.19156 0-.74688.01-1.33469.0697-2.66938.0597-1.65375.0797-2.00218.0897-2.66972v-.4581h-.4085v.2888c0 .61746-.03 1.29496-.1494 2.89871-.1196 1.57375-.1493 2.31094-.1493 3.04813 0 .94625.0797 2.21125.249 2.87875.0197.05968.0297.12937.0297.13937 0 .02-.01.06969-.0297.11969-.1493.517811-.5878.936248-1.2653.936248-.4681 0-.7268-.149375-.9759-.418437-.3984-.388441-.6278-1.005941-.6278-1.792811 0-.38875.04-1.01625.1593-2.26125.1397-1.53406.1594-1.9125.1594-2.62969 0-1.76312-.3384-3.20751-2.0518-3.20751-.5479 0-.8966.2291-1.2054.5975-.4881.57782-.7968 1.63376-.7968 2.89876 0 .73719.219 1.245.6675 1.55406.239.15938.4681.23907.8465.23907.6775 0 1.1257-.41844 1.1657-.92657zM104.6-60.68128v-.07968h-.209v.05968c-.05.40844-.4281.6575-.8565.6575-.1694 0-.3488-.03968-.5181-.11937-.4682-.22906-.6872-.6975-.6872-1.40469 0-.33875.03-.80687.0697-1.12562.1197-.92625.4084-1.51407.8765-1.79284.2094-.1297.4681-.1894.7969-.1894.8567 0 1.3547.46817 1.4947 1.43442.049.28875.049.39844.049.80688 0 .71719-.049 1.20531-.288 2.93844-.18 1.20531-.239 1.72343-.269 2.32093-.01.08969-.01.17938-.01.25907 0 1.25531.717 2.281246 1.673 2.530308.159.039688.309.069688.518.069688.707 0 1.295-.32875 1.723-.98625.518-.806876.817-2.061876.877-3.785316.01-.17906.01-.44812.01-.73687 0-.53813-.01-1.16563-.03-1.61375v-.15938c.209-.13968.379-.32875.558-.58781.418-.6375.697-1.66344.697-2.75936v-.0994h-.209v.1991c-.04 1.1356-.349 2.08185-.867 2.62966-.08.08969-.199.18938-.209.18938 0-.01-.01-.07969-.02-.15938-.08-.91656-.239-1.60375-.478-2.08187-.219-.41849-.478-.65749-.817-.74719-.08-.02-.109-.02-.269-.02-.508 0-.827.1694-1.086.4284-.318.31879-.517.71722-.517 1.33472 0 .11969 0 .24907.01.31875.179 1.00625.926 1.67375 2.151 1.67375.269 0 .389-.01.588-.07968l.119-.04v.12937c0 .46844-.01.88656-.03 1.53406-.01.97625-.029 1.36469-.089 1.91282-.189 1.8825-.718 2.908433-1.614 3.097808-.079.02-.189.02-.299.02-1.105 0-1.614-.846878-1.763-1.872808-.01-.09969-.01-.18938-.01-.49813 0-.52781.03-.98594.14-2.22125.139-1.51406.159-1.9025.159-2.61 0-.49781 0-.64719-.04-.98594-.08-.6875-.269-1.20531-.568-1.56407-.298-.3684-.767-.5875-1.3941-.5875-.4981 0-.8169.1594-1.1256.4681-.3688.36847-.6278.91629-.7772 1.66347-.0897.41844-.1394.97625-.1394 1.38469 0 .72719.2191 1.225.6675 1.53406.2391.15938.4682.23907.8466.23907.6775 0 1.1252-.41844 1.1652-.92657zm4.174-.99593c-.787 0-1.345-.33875-1.614-.89657-.109-.21937-.159-.46812-.159-.70718 0-.71719.478-1.35504 1.185-1.35504.1 0 .209.01.269.03.379.0997.648.42847.817 1.00629.11.39843.169.85656.199 1.62343v.15938c-.229.06969-.438.13969-.697.13969zM118.9-60.68128v-.07968h-.21v.05968c-.05.40844-.428.6575-.856.6575-.17 0-.349-.03968-.518-.11937-.469-.22906-.688-.70719-.688-1.41469 0-.33844.03-.80687.07-1.11562.139-1.02594.478-1.64344 1.036-1.87254.179-.07.408-.1097.637-.1097 1.246 0 1.555.9463 1.555 2.2513 0 .21906-.01.43812-.021.55781-.039.6275-.099 1.07594-.269 2.31094-.219 1.51406-.278 2.11187-.278 2.65969 0 .22906 0 .29875.02.42843.149 1.13563.916 2.141566 2.111 2.141566.638 0 1.236-.34875 1.554-.906563l.04-.069687c.408.567812.897.97625 1.743.97625.12 0 .25-.01.329-.02.737-.119375 1.295-.557813 1.703-1.334686.479-.91656.718-2.38063.718-4.11406 0-.56782-.01-1.245-.03-1.66344v-.13938l.07-.05c.717-.51781 1.185-1.95218 1.185-3.29717v-.0994h-.209v.1991c-.04 1.1356-.349 2.08185-.867 2.62966-.079.08969-.199.18938-.209.18938 0-.01-.01-.07969-.02-.15938-.12-1.35469-.408-2.21156-.877-2.60996-.199-.1691-.418-.2488-.687-.2488-.438 0-.807.1691-1.076.4381-.319.31879-.528.71722-.528 1.33472 0 .11969.01.24907.02.31875.18 1.01625.957 1.68344 2.152 1.68344.219 0 .408-.02969.597-.09937l.1-.03v.33875c-.01.17937-.02.48812-.02.6675-.01.17906-.01.47812-.01.6475 0 .54781-.02 1.09562-.06 1.54375-.179 2.32093-.876 3.476558-2.092 3.476558-.268 0-.468-.04-.667-.129375-.458-.199375-.807-.617813-.936-1.135623-.02-.09969-.11-.58781-.16-.98625-.268-1.81281-.398-4.22344-.398-6.52469v-.20906h-.409l-.009 1.47437v.91625c0 1.56407.02 2.34094.099 3.2575.06.80657.19 1.79282.279 2.12157.04.15937.04.15937.02.25906-.149.527811-.598.946248-1.275.946248-.468 0-.727-.149375-.976-.418437-.398-.388441-.628-1.005941-.628-1.792811 0-.38875.04-1.01625.16-2.26125.139-1.53406.159-1.9125.159-2.62969 0-1.76312-.338-3.20751-2.052-3.20751-.548 0-.896.2291-1.205.5975-.488.57782-.797 1.63376-.797 2.89876 0 .73719.219 1.245.667 1.55406.239.15938.469.23907.847.23907.677 0 1.126-.41844 1.166-.92657zm7.6-.99593c-.787 0-1.345-.33875-1.614-.89657-.11-.21937-.159-.46812-.159-.70718 0-.71719.478-1.35504 1.185-1.35504.1 0 .209.01.269.03.379.0997.648.42847.817 1.00629.109.39843.169.85656.199 1.62343v.15938c-.229.06969-.438.13969-.697.13969zM133.953-63.15159c0 1.10563.896 1.83281 1.842 1.83281.15 0 .299-.03.448-.04968v-.20938h-.029c-.09.03-.16.03-.319.03-.199 0-.309-.01-.478-.06969-.459-.14937-.847-.54781-.986-.99625-.06-.16937-.07-.26875-.07-.46812 0-.50813.169-.81688.448-1.08563.289-.29907.648-.48817 1.146-.48817.288 0 .598.0697.866.1991.787.38845 1.216 1.29501 1.345 2.86876.04.46844.06 1.13563.06 1.76344 0 .44812-.01.87656-.03 1.205-.09 1.37469-.358 2.43062-.777 3.06812-.299.468128-.647.717191-1.096.816878-.109.02-.139.02-.328.02-1.017 0-1.654-.757188-1.654-1.653748 0-.5875.309-1.07563.657-1.35469l.1-.07969v-.09937c0-.05 0-.09969-.01-.09969s-.149.07969-.219.11938c-.448.27906-.767.72718-.876 1.24531-.03.12937-.04.24906-.04.37844 0 1.006246.786 1.952496 1.982 1.952496.338 0 .647-.069688.946-.209375.588-.29875 1.056-.886561 1.405-1.763121.069-.17907.159-.49782.209-.6275 0 0 .02.05968.04.12968.288 1.13532.886 2.101566 1.982 2.390628.219.059688.359.079688.588.079688 1.046 0 2.002-.786875 2.002-1.912496 0-.91657-.648-1.58407-1.385-1.78313-.149-.04-.299-.05969-.448-.05969-.149 0-.309.02969-.458.04969v.21906c.099-.02968.139-.02968.338-.02968.768 0 1.275.46812 1.465 1.05562.059.16938.069.27906.069.47813 0 .21937-.01.30906-.069.48812-.199.597813-.807 1.085938-1.524 1.085938-.369 0-.757-.109687-1.056-.31875-.697-.468128-1.056-1.404688-1.166-3.018438-.03-.38844-.04-.93625-.04-1.46406 0-.47813.01-.93656.03-1.24531.14-2.13157.698-3.43657 1.614-3.79534.179-.0697.379-.1094.588-.1094.109 0 .219.01.328.0297.708.1297 1.315.74722 1.315 1.62379 0 .50812-.229 1.01625-.647 1.35468l-.1.07969v.20938l.1-.05c.637-.31875 1.046-.99594 1.046-1.70313 0-.98625-.717-1.77311-1.654-1.92251-.07 0-.219-.02-.318-.02-.339 0-.658.0697-.947.2091-.597.2987-1.065.88654-1.414 1.7631-.07.17937-.16.49812-.209.6275 0 0-.02-.05969-.04-.12938-.15-.59781-.399-1.14562-.737-1.57375-.439-.52817-1.006-.88657-1.903-.88657-1.066 0-1.932.87657-1.932 1.90251zM148.242-61.55784c0 .77688.219 1.265.667 1.56406.239.15938.468.23907.847.23907.677 0 1.125-.41844 1.165-.92657v-.07968h-.209v.05968c-.05.40844-.428.6575-.857.6575-.169 0-.348-.03968-.518-.11937-.468-.22906-.687-.70719-.687-1.41469 0-1.41437.219-3.08786 1.514-3.08786 1.245 0 1.524.9563 1.524 2.29099 0 .96625-.309 3.08812-.309 4.06437 0 .30875 0 .41813.05.65719.15.72719.568 1.36469 1.136 1.71344.319.18937.687.28906 1.066.28906.179 0 .358-.02.528-.07.577-.14938 1.095-.5775 1.454-1.16531l.05-.08969v2.490311l-.169.109687c-1.036.717188-1.853 1.484062-2.391 2.241252-.459.6575-.708 1.41437-.708 2.12156 0 1.12563.618 2.13188 1.684 2.13188 1.454 0 1.982-1.71344 2.142-3.27719.039-.37875.039-.46844.049-1.87281v-1.364692l.229-.139375c.12-.07.299-.179375.389-.229375.09-.049687.159-.099375.159-.099375 0-.01-.179-.33875-.199-.34875 0 0-.04.02-.329.189375l-.249.149375V-65.0441h-.607v3.2772c0 2.10187 0 3.32687-.01 3.39656-.1 1.11563-.698 2.10188-1.644 2.30125-.09.01969-.139.01969-.289.01969-.169 0-.209 0-.318-.01969-.957-.22906-1.425-1.12562-1.425-2.35094 0-.55781.11-2.74937.11-3.2175 0-1.73312-.259-3.12777-1.534-3.37687-.13-.02-.279-.0397-.409-.0397-1.225 0-1.902 1.49407-1.902 3.49626zm7.421 8.985c-.01 1.25531-.01 1.42438-.04 1.81313-.119 1.62343-.608 2.47031-1.564 2.47031-.309 0-.588-.12969-.817-.34875-.289-.30875-.478-.72719-.478-1.33469 0-.14937 0-.31875.02-.41844.09-.56781.329-1.11562.717-1.60375.518-.6475 1.196-1.285 2.022-1.882809l.14-.099375v1.404374zM162.099-62.4144c0 .95625.499 1.55375 1.375 1.55375.807 0 1.684-.5875 1.684-1.40438 0-.41843-.2-.72718-.379-.99625h-.209l.099.09969c.249.26906.379.54781.379.82688 0 .31875-.15.56781-.339.75687-.269.26906-.607.45844-1.116.45844-.169 0-.199 0-.288-.02-.548-.14938-.787-.55781-.787-1.275 0-.97625.279-1.75313.737-2.0622.179-.1194.279-.1494.608-.1494.757 0 1.504.2391 2.56.84691.269.15938 1.464.87656 1.593.93625 0 0-.059.12938-.129.26906-.369.72719-.638 1.51407-.857 2.42063l-.04.19906h-.03c-.159-.03969-.388-.05969-.567-.05969-.319 0-.538.05969-.757.16938l-.11.04969v.20937c.159-.08969.359-.13969.578-.13969.099 0 .209.01.319.03.119.02.478.09969.478.11938 0 .04-.07.37875-.15.6775-.189.73719-.428 1.44437-.677 1.97219l-.06.11968c-.568-.27906-1.215-.43843-1.763-.43843-1.106 0-1.952.60781-2.122 1.40468-.02.09969-.03.18938-.03.27875 0 .338753.13.667503.369.906566.14.149375.309.239062.518.29875.09.02.11.02.319.02.338 0 .617-.039688.936-.149375.767-.249063 1.415-.786875 1.972-1.633751.06-.08969.11-.14937.12-.14937.04 0 .528.28906 1.096.6375.946.587808 1.862 1.155621 2.849 1.284996.089.01.229.02.358.02.13 0 .239-.01.299-.02.568-.129375.986-.557813 1.235-1.284996.14-.38844.219-.89657.219-1.33469 0-.93625-.458-1.55406-1.374-1.55406-.767 0-1.674.52812-1.674 1.41468 0 .27875.1.5775.299.87657l.07.11937h.209l-.09-.09969c-.179-.18906-.299-.39843-.358-.5975-.02-.07968-.02-.10968-.02-.23906 0-.32875.139-.55781.328-.74719.269-.26875.608-.45812 1.126-.45812.159 0 .189 0 .289.02.538.14937.787.56781.787 1.275 0 .97625-.289 1.753123-.747 2.061873-.18.119688-.279.149375-.598.149375-.707 0-1.414-.219062-2.331-.737188-.289-.15937-1.434-.86656-1.713-1.02594-.05-.02968-.1-.04968-.1-.05968l.13-.25907c.348-.71718.627-1.51406.836-2.42062l.04-.17906c.15.02968.389.05968.558.05968.309 0 .588-.05968.817-.16937l.09-.04969v-.19937c-.01 0-.05.02-.09.04-.14.06968-.289.09937-.468.09937-.14 0-.289-.01969-.468-.05969-.13-.03-.349-.07968-.359-.08968 0-.01.09-.41844.16-.68719.209-.83688.448-1.46438.746-2.12188.598.25907 1.096.44844 1.843.44844.976 0 1.714-.43844 1.963-1.06594.069-.15937.099-.29875.099-.47812 0-.56781-.298-1.0559-.717-1.2553-.129-.0597-.269-.0894-.468-.0894-.06 0-.13.0097-.199.0097-1.086.0797-1.992.6675-2.73 1.77312-.039.06969-.079.12969-.089.12969-.02 0-.568-.31875-.987-.56781-.796-.48813-1.046-.6375-1.414-.8169-.637-.3187-1.156-.4681-1.703-.5181-.08 0-.17-.0097-.249-.0097-1.146 0-1.734 1.3047-1.734 2.6297zm9.882-1.295c0 .04969 0 .10969-.01.15937-.129.6075-.847 1.00594-1.703 1.00594-.369 0-.757-.06969-1.136-.18906-.109-.03-.478-.15938-.478-.17938 0-.02.189-.31875.319-.48812.129-.17938.219-.27875.378-.43813.389-.38875.807-.61782 1.305-.72722.179-.04.389-.07.548-.07.07 0 .129.01.179.02.379.05.598.52816.598.9066zm-6.276 7.14219l.15.05968c-.279.55782-.737 1.05594-1.166 1.335003-.428.28875-.886.428125-1.384.428125-.19 0-.2 0-.269-.02-.309-.099375-.538-.438125-.538-.796878 0-.19906.06-.39843.189-.5875.269-.44843.956-.6975 1.694-.6975.497 0 .856.09969 1.324.27907z"/><path fill="none" stroke="#000" stroke-miterlimit="10" stroke-width="0.1417" d="M17.6016-30.4141h141.3672M17.6016-34.7031h141.3672M17.6016-38.9961h141.3672M17.6016-41.1406h141.3672M17.6016-25.26953h141.3672M17.6016-23.98047h141.3672"/><path d="M18.157844-31.79065c0 .16938-.039688.408439-.089688.567814-.049687.119687-.089687.189375-.159375.269062-.099687.089688-.179375.109375-.31875.129375v.408438h.069688c.36875-.04.6575-.31875.806875-.796875.059687-.169375.099687-.418434.099687-.587814v-.04969h-.408437v.05969zm1.713516 1.374689c.50781 0 .89625-.189375 1.18531-.468125.08969-.079688.22906-.239063.26906-.30875.00969-.02.01969-.03.01969-.03.25906.418437.6475.757187 1.275.806875h.09969v-.408438l-.09969-.01c-.38844-.039687-.68719-.33875-.80687-.786871-.02969-.13938-.03969-.29875-.03969-.89657 0-1.10562.03969-1.17531.23906-1.78312-.01-.00969-.57781.14969-.58781.15937 0 0-.01969-.01968-.04969-.05968-.19937-.27875-.58781-.51782-.99625-.51782-.05969 0-.11937.00969-.18906.01969-.37875.05-.75719.26906-1.11563.62781-.478121.47813-.806871 1.10563-.906558 1.74313-.01.04969-.01.16937-.01.28875 0 1.006249.836878 1.623749 1.713438 1.623749zm1.295-2.131559v.73687l-.03.07969c-.18938.538124-.70719.906561-1.255.906561-.62781 0-1.13563-.527812-1.13563-1.295001 0-.20906.02969-.43812.09938-.66719.13969-.43843.39844-.87687.6875-1.14562.25906-.23906.54781-.36875.81687-.36875.42813 0 .75688.31875.82657.6875.01.04969.02.07969.02.10937 0 .20938-.02.32875-.02969.95657zm2.42898 1.334684c-.29875.189375-.34875.219062-.44812.27875-.12969.06-.25906.099687-.35875.109687h-.07969v.408438h.07969c.23906-.02.46812-.119688.81687-.32875.14938-.089688.24907-.139375.33875-.209063 0-.02-.19937-.34875-.19937-.34875-.01 0-.07969.04-.14938.089688zM31.9314-37.56815c0 .46813-.2091 1.51406-.4782 2.47031-.4681 1.62375-1.0559 2.95844-1.6237 3.685629-.0994.129687-.2988.32875-.3885.408437-.1393.099688-.3287.179375-.4381.179375h-.03v.408438h.0697c.6178-.069688 1.3947-1.125629 2.1516-2.938439.5878-1.41469 1.0459-3.10812 1.0959-3.97469v-.13937l-.1197-.06969c-.1094-.05-.1594-.08969-.239-.12969v.09969zm.4485 3.845c-.3091 0-.5678.26906-.5678.56781 0 .45813.4281.74719.8465.79688h.0797l-.01.04c-.0697.6075-.4381 1.195311-.8766 1.394374-.1493.069687-.3287.109687-.4981.109687-.2887 0-.5775-.099687-.7669-.279062-.3684-.338439-.4681-1.035939-.4681-1.932189 0-.28906 0-.58781.01-.75719.01-.15937.01-.88656.0197-2.21156 0-1.08562.01-2.01187.01-2.06187.01-.03969.01-.17938.02-.30875.0497-1.20532.2391-1.99219.5278-2.26128.0897-.0597.1397-.0997.2991-.0997.0997 0 .1294 0 .199.02.6276.2191.7072 1.31504.7272 2.45066l.01.5875.1694.09969c.0897.05969.1694.09969.1694.09969.01 0 .01-.05.01-.13938 0-.21937-.02-.6475-.04-.93656-.0997-1.46406-.4381-2.3109-1.006-2.53-.0996-.04-.229-.0597-.3487-.0597-.4084 0-.6872.2588-.8866.6572-.2787.55781-.4184 1.39469-.4581 2.67969 0 .21906-.01 1.13562-.01 2.06187 0 .92657.01 1.84282.01 2.05219.03.97625.1194 1.61375.3088 2.11156.209.677504.7271 1.155629 1.504 1.155629.5978 0 1.1457-.35875 1.4944-1.005939.1394-.26906.2491-.60781.2888-.93656h.3784v-.40844h-.3485v-.08969c-.05-.42812-.3287-.86656-.7968-.86656zm-.0697.23906c.0397 0 .0797.01.1194.03.1793.08969.3087.32875.3387.6075v.07969h-.0797c-.05-.01-.1197-.01969-.1693-.02969-.2791-.06968-.4682-.24906-.4682-.42843 0-.12938.1294-.25907.2591-.25907zM39.2343-31.79065c0 .16938-.0397.408439-.0897.567814-.0496.119687-.0896.189375-.1593.269062-.0997.089688-.1794.109375-.3188.129375v.408438h.0697c.3688-.04.6575-.31875.8069-.796875.0597-.169375.0997-.418434.0997-.587814v-.04969h-.4085v.05969zm3.0782-1.72312c0 .03968 0 .07968.01.07968 0 0 .3285-.18937.3385-.19937s-.0197-.16938-.0597-.26906c-.1494-.45813-.5975-.81657-1.1653-.81657-.05 0-.0997 0-.1497.00969-.5078.08969-1.046.48813-1.3547.88656-.4481.56782-.7072 1.23532-.7072 1.79313 0 .19937.03.33875.0797.48812.2191.667504.8566 1.125629 1.7134 1.125629.8766 0 1.5938-.169375 2.1716-.468125.0697-.03.1294-.069688.1294-.069688 0-.01-.1794-.33875-.1991-.34875l-.1397.069688c-.5278.269062-1.1356.408437-1.9325.408437-.0994 0-.189-.01-.229-.01-.5479-.069687-.996-.577812-.996-1.275001 0-.14937.0197-.30875.0597-.47812.0497-.26907.1991-.6175.3388-.85657.2587-.39843.6771-.86656 1.2153-.86656.4681 0 .8465.38844.8765.79688zM48.928-31.79065c0 .16938-.0397.408439-.0897.567814-.0497.119687-.0897.189375-.1594.269062-.0997.089688-.1793.109375-.3187.129375v.408438h.0697c.3687-.04.6575-.31875.8068-.796875.0597-.169375.0997-.418434.0997-.587814v-.04969h-.4084v.05969zm1.7135 1.374689c.6872 0 1.1553-.388438 1.4641-.786875 0 0 .03.049687.07.099687.209.348438.7369.687188 1.265.687188h.0497v-.408438h-.0297c-.07 0-.2094-.03-.2891-.059687-.2787-.119688-.4981-.36875-.5878-.697184l-.0197-.09969-.01-3.62594c0-1.99219-.01-3.62594-.01-3.62594-.01-.01-.5578-.10968-.5878-.10968-.01 0-.01.58781-.01 2.31125v2.31093l-.0297-.02c-.1494-.14937-.4781-.27875-.7572-.27875-.2887 0-.5875.09938-.8765.28875-.6772.41844-1.2153 1.295-1.3447 2.10188-.01.04969-.01.16937-.01.28875 0 .996249.8169 1.623749 1.7134 1.623749zM49.5159-32.1194c0-.20906.0297-.43812.0994-.66719.1397-.43843.3984-.87687.6875-1.14562.259-.23906.5478-.36875.8168-.36875.3985 0 .6972.26906.8069.59781.0197.05969.0197.06969.0197.96625v.91625l-.0297.08c-.1694.497814-.6275.916251-1.2553.916251-.6375 0-1.1453-.517812-1.1453-1.295001zm4.8496.906564c-.2987.189375-.3487.219062-.4481.27875-.1297.06-.2591.099687-.3588.109687h-.0797v.408438h.0797c.2391-.02.4682-.119688.8169-.32875.1494-.089688.2491-.139375.3388-.209063 0-.02-.1994-.34875-.1994-.34875-.01 0-.0797.04-.1494.089688zM60.3109-31.79065c0 .16938-.0397.408439-.0897.567814-.0497.119687-.0897.189375-.1594.269062-.0997.089688-.1793.109375-.3187.129375v.408438h.0697c.3687-.04.6575-.31875.8068-.796875.0597-.169375.0997-.418434.0997-.587814v-.04969h-.4084v.05969zm1.8229.956251c-.2688 0-.2788 0-.3685-.02-.5281-.139375-.8665-.587501-.8665-1.235001 0-.09969.01-.19937.0197-.23906v-.03h.5978c.6475 0 .7172 0 .9262-.05969.5382-.14937 1.116-.51812 1.2753-1.03594.0097-.04.0097-.10968.0097-.17937 0-.08969 0-.17938-.0197-.23906-.1196-.46813-.5081-.84657-1.0959-.84657-.3484 0-.5578.08938-.8366.24907-.8268.48781-1.4743 1.57375-1.4743 2.45031 0 .33875.0997.637499.279.896561.3088.418438.8069.707188 1.5041.707188.8866 0 1.5937-.159375 2.1816-.468125.0696-.03.1293-.069688.1293-.069688 0-.01-.1793-.33875-.199-.34875-.5778.29875-1.2253.468125-2.0622.468125zm1.1856-2.848751c0 .09938 0 .15938-.02.21906-.1394.35875-.5578.57782-.9862.6675-.0997.01969-.1294.01969-.7072.02969h-.5978c.0696-.21906.1493-.40844.249-.56781.3188-.54781.7372-.89625 1.1756-.97594h.0894c.0897 0 .1994 0 .2391.00969.279.08969.5581.29906.5581.61781zM72.3951-37.56815c0 .46813-.2091 1.51406-.4781 2.47031-.4681 1.62375-1.056 2.95844-1.6238 3.685629-.0993.129687-.2987.32875-.3884.408437-.1394.099688-.3288.179375-.4381.179375h-.03v.408438h.0697c.6178-.069688 1.3946-1.125629 2.1515-2.938439.5878-1.41469 1.046-3.10812 1.096-3.97469v-.13937l-.1197-.06969c-.1094-.05-.1594-.08969-.2391-.12969v.09969zm.9167 6.275626c-.0201 0-.0597.03-.2891.169375-.1594.119375-.3885.239063-.4181.239063-.02 0-.1497-.36875-.1594-.398438-.1594-.318746-.5181-.538126-.8269-.538126-.289 0-.4881.20938-.4881.468439 0 .478125.6075.93625 1.1356.93625h.0597l.04.159375c.1991.747187.2788 1.514066.2788 2.490316 0 .6075-.03 1.08562-.0797 1.50406-.1394 1.05594-.4482 1.66375-.9163 1.82312-.0797.02969-.1694.04969-.249.04969-.06 0-.1197-.01-.1594-.03-.4485-.20906-.5578-1.48406-.6078-2.45031-.01-.13938-.01-1.72344-.02-5.37906 0-5.07032 0-5.66813.03-6.17594.0796-1.37469.2887-2.10189.6475-2.27129.0596-.03.0697-.03.1793-.03.0997 0 .1294 0 .1991.02.6275.2191.7072 1.31504.7272 2.45066l.01.5875.1694.09969c.0897.05969.1693.09969.1693.09969.01 0 .01-.05.01-.13938 0-.21937-.02-.6475-.04-.93656-.0996-1.46406-.4381-2.3109-1.0059-2.53-.0997-.04-.2291-.0597-.3487-.0597-.2691 0-.4482.1094-.6175.2788-.3985.4084-.6275 1.24528-.7072 2.56996-.03.46813-.03 1.01594-.03 5.72782 0 4.71156 0 5.25937.03 5.7175.0797 1.335.3087 2.17156.7072 2.58.189.18937.3087.26906.6474.26906.1694 0 .2391-.01.3785-.06969.5478-.22906.9562-1.01625 1.1556-2.23125.0897-.50812.1294-1.06594.1294-1.62375 0-.88656-.1097-1.773124-.3088-2.500311-.02-.069688-.03-.089688-.01-.089688.02 0 .3288-.159375.5378-.28875.1197-.079687.2391-.139687.2391-.159375 0-.01-.1891-.33875-.199-.33875zm-1.7732-.298746c.0497 0 .0997.01.1494.03968.1694.07969.3288.289066.4384.577816l.0597.139375h-.01c-.279 0-.5678-.149375-.7072-.28875-.0896-.079687-.1296-.159375-.1296-.239062 0-.109689.0796-.229059.1993-.229059zM79.1239-31.79065c0 .16938-.0397.408439-.0897.567814-.0496.119687-.0896.189375-.1593.269062-.0997.089688-.1794.109375-.3188.129375v.408438h.0697c.3688-.04.6575-.31875.8069-.796875.0597-.169375.0997-.418434.0997-.587814v-.04969h-.4085v.05969zm3.2573-2.37062c0 .01-.0197-.01-.0697-.06969-.219-.30906-.5875-.47844-.9662-.47844-.0597 0-.1294 0-.1891.01-.5381.07969-1.0959.49813-1.5044 1.10594-.3087.45812-.5278.90625-.5278 1.56375 0 .32875.03.48812.1494.687499.2791.5775.8866.92625 1.5241.92625.5181 0 .9662-.239063 1.265-.518125l.0796-.079688v.567813l-.1493.109687c-.5278.418438-1.046.916563-1.4941 1.424374-.2491.28906-.5678.6975-.7072.91656-.4084.6475-.6275 1.36469-.6275 2.04188 0 .87656.3685 1.56406.9363 1.84281.189.08969.3784.13969.5878.13969.1194 0 .2487-.02.3784-.05.3885-.08969.7372-.36844 1.006-.80688.3884-.6375.6178-1.64343.6675-2.93843.01-.12938.01-.77688.01-1.42438 0-1.115624 0-1.185311.02-1.195311.0596-.06.5278-.36875.7468-.498125.0697-.03.1197-.069688.1197-.069688 0-.02-.1894-.34875-.1994-.34875-.01 0-.3784.219063-.5378.32875-.0797.049688-.1393.089688-.1493.089688v-.518125c0-.737189 0-2.012189.01-2.091879.0196-.22906.0993-.49781.189-.70718.04-.07969.04-.07969.02-.07969-.01.01-.5678.09969-.5878.11969zm-1.0756-.13969c.4781 0 .7769.33875.8465.72719 0 .02.01.04.01.05 0 .01-.01.01968-.01.01968 0 .01-.01.39875-.01.86688l-.0096.84656-.03.09969c-.1794.537811-.6475.866561-1.1657.866561-.1293 0-.2487-.02-.3784-.059687-.4781-.159375-.8566-.617504-.8566-1.275004 0-.90656.7272-2.14187 1.6038-2.14187zm.8269 7.22187c-.03.77719-.0897 1.26532-.2391 1.69344-.1694.52813-.4784.86688-.8866.96625-.0997.03-.1993.04-.299.04-.1194 0-.2391-.02-.3585-.05969-.5281-.17937-.8468-.77718-.8468-1.50437 0-.22906.04-.46813.0996-.71719.1197-.45812.3388-.89656.6575-1.305.4982-.6375 1.1257-1.29469 1.7432-1.822811l.1393-.119375v1.254996c0 .76688 0 1.37469-.0096 1.57375zM92.2057-37.64784c-.01 0-.01.04-.01.08969 0 .19906-.0597.55781-.1393.84656-.3985 1.325-1.315 2.54032-2.2513 3.07813v.43844c-.01.44812-.02.6375-.0497.89625-.0997.966246-.4084 1.424684-.9962 1.474371h-.0897v.408438h.0997c.3884-.03.6972-.219063.9262-.557813.3188-.478126.4781-1.175316.5181-2.291246v-.18907c.0697-.04.1097-.05968.2091-.13937.9266-.6875 1.7434-1.9425 2.0322-3.07813.0497-.23906.0997-.56781.0997-.73718v-.05969l-.1694-.08969c-.1297-.07969-.1594-.09969-.1694-.09969l-.01.01zm-1.6593-3.20746c-.3985.3984-.6275 1.24528-.7072 2.56996-.03.45813-.03.98625-.03 4.34313v3.526249h.6075v-.826875l.01-.836564.02-.13969c.1197-.5975.3684-1.215.6775-1.62343.1694-.22907.4084-.47813.7368-.47813.1694 0 .3091.07969.4285.22906.289.41844.3087.82657.3387 1.63344.02.76719.1694 1.424689.5082 1.773126.169.159375.3484.249063.5675.269063h.0897v-.408438h-.0397c-.05 0-.1494-.03-.2094-.059687-.3285-.159375-.3188-.657504-.3188-1.315004v-.26875c0-.49812-.0297-.74718-.1293-1.08593-.1494-.57782-.5679-1.18532-1.1457-1.18532-.0993 0-.189.02-.2887.04969-.0897.03-1.0559 1.16563-1.2353 1.16563 0 0-.01-.74719-.01-1.65375 0-1.285.01-2.87875.02-3.06782.04-.6875.0797-1.11593.1593-1.49437.1097-.53781.2791-.85659.4982-.95629.0597-.03.0697-.03.1793-.03.0997 0 .1294 0 .1991.02.6275.2191.7072 1.31504.7272 2.45066l.01.5875.1694.09969c.0897.05969.1693.09969.1693.09969.01 0 .01-.05.01-.13938 0-.21937-.02-.6475-.04-.93656-.0996-1.46406-.4381-2.3109-1.0059-2.53-.0997-.04-.2291-.0597-.3487-.0597-.2691 0-.4482.1094-.6175.2788zm4.1283 9.642464c-.2987.189375-.3487.219062-.4481.27875-.1297.06-.2591.099687-.3588.109687h-.0796v.408438h.0796c.2391-.02.4682-.119688.8169-.32875.1494-.089688.2491-.139375.3388-.209063 0-.02-.1994-.34875-.1994-.34875-.01 0-.0797.04-.1494.089688zM101.2018-33.83252c0 1.05562-.01 1.34468-.0797 1.72312-.1293.826876-.4481 1.235314-.9662 1.285001h-.0897v.408438h.04c.0697 0 .1891-.02.2788-.04.7471-.189063 1.0559-1.045629 1.1756-1.962189.0397-.32875.0397-.40844.0497-1.35469v-.93656h-.4085v.87688zm-.0896-2.59c0 .24906.1494.39843.3985.39843.229 0 .3984-.16937.3984-.39843 0-.22907-.1894-.38844-.3784-.39844-.05 0-.0997.01-.1197.01-.1594.03969-.2988.17906-.2988.38844zm.0897 2.61968c.01.75719.01.93657.02 1.06594.0597.56781.1694.99625.3584 1.364689.2791.5975.6975.91625 1.2254.95625h.0996v-.408438l-.1096-.01c-.4482-.039687-.7272-.368437-.8666-1.005941-.0997-.42843-.1197-.77718-.1197-2.00218v-.86688h-.6075v.90656zm2.5822 2.590004c-.2988.189375-.3488.219062-.4481.27875-.1297.06-.2591.099687-.3588.109687h-.0797v.408438h.0797c.2391-.02.4681-.119688.8169-.32875.1494-.089688.2491-.139375.3387-.209063 0-.02-.1993-.34875-.1993-.34875-.01 0-.0797.04-.1494.089688zM111.4051-33.4144c-.1791.42844-.2587.59781-.3884.86688-.5578 1.145309-1.0957 1.673434-1.7532 1.723121h-.0896v.408438h.0896c.5779-.04 1.0857-.408438 1.5641-1.145629.2988-.44812.4978-.82656.966-1.86281.1296-.26875.269-.5875.3287-.69719.0897-.20906.2591-.50812.2991-.58781h-.4085c-.1397.22938-.299.57781-.6078 1.295zm.5082-3.00812c0 .27875.2391.48812.5178.38843.1597-.04968.2791-.15937.2791-.38843 0-.24907-.1794-.39844-.3985-.39844-.219 0-.3984.14937-.3984.39844zm-1.4844 12.45156c1.4544 0 1.9825-1.71344 2.1419-3.27719.0397-.37875.0397-.46844.0497-1.87281v-1.364689l.2291-.139375c.1196-.07.299-.179375.3884-.229375.0897-.049687.1594-.099375.1594-.099375 0-.01-.1791-.33875-.1991-.34875 0 0-.04.02-.3287.189375l-.2491.149375V-34.7094h-.6075v4.134064l-.1694.109687c-1.0359.717188-1.8528 1.484059-2.3906 2.241249-.4584.6575-.7075 1.41438-.7075 2.12156 0 1.12563.6178 2.13188 1.6834 2.13188zm1.5841-4.69188c-.01 1.25532-.01 1.42438-.04 1.81313-.1194 1.62344-.6075 2.47031-1.5638 2.47031-.3087 0-.5878-.12969-.8168-.34875-.2891-.30875-.4781-.72719-.4781-1.33469 0-.14937 0-.31875.0199-.41843.0894-.56782.3285-1.11563.7172-1.60375.5178-.6475 1.1953-1.285 2.0219-1.882816l.1397-.099375v1.404371zM121.964-37.64784c-.01 0-.01.04-.01.08969 0 .19906-.06.55781-.139.84656-.399 1.325-1.315 2.54032-2.252 3.07813v.43844c-.01.44812-.02.6375-.049.89625-.1.966246-.409 1.424684-.996 1.474371h-.09v.408438h.1c.388-.03.697-.219063.926-.557813.319-.478126.478-1.175316.518-2.291246v-.18907c.07-.04.11-.05968.209-.13937.927-.6875 1.743-1.9425 2.032-3.07813.05-.23906.1-.56781.1-.73718v-.05969l-.17-.08969c-.129-.07969-.159-.09969-.169-.09969l-.01.01zm-1.789 3.53625v-1.9625c.01-1.275.01-2.03187.02-2.17125.04-.6875.08-1.11593.159-1.49437.11-.53781.279-.85659.499-.95629.059-.03.069-.03.179-.03.1 0 .129 0 .199.02.627.2191.707 1.31504.727 2.45066l.01.5875.17.09969c.089.05969.169.09969.169.09969.01 0 .01-.05.01-.13938 0-.21937-.02-.6475-.04-.93656-.1-1.46406-.438-2.3109-1.006-2.53-.1-.04-.229-.0597-.349-.0597-.269 0-.448.1094-.617.2788-.399.3984-.628 1.24528-.707 2.56996-.03.45813-.03.98625-.03 4.34313v3.526249h.607v-.697188c0-.547811 0-.687501.01-.687501.01.01.05.03.1.05.169.06969.378.10938.607.10938h.08l.169-.01.1.09968c.05.05.199.199379.319.328754.318.35875.478.498125.677.6175.209.109687.478.189375.697.189375h.05v-.408438l-.139-.01c-.458-.039687-.767-.219062-1.216-.717191l-.159-.16937.12-.03969c.438-.14937.787-.41844.936-.71719.06-.11968.08-.17937.08-.30875v-.07968c0-.86688-.478-1.45438-1.116-1.67375-.139-.04969-.269-.06969-.408-.06969-.419 0-.728.21937-.907.49812zm2.032 1.20532c0 .14937-.01.20906-.069.31875-.12.22906-.449.42843-.837.50812-.07.01-.1.01969-.13.01969-.039 0-.059-.00969-.099-.03969-.229-.17937-.489-.26906-.787-.26906h-.11v-1.33469c.159-.23906.408-.45812.777-.45812.747 0 1.216.55781 1.255 1.255zm1.654 1.693434c-.299.189375-.349.219062-.448.27875-.13.06-.259.099687-.359.109687h-.079v.408438h.079c.239-.02.468-.119688.817-.32875.15-.089688.249-.139375.339-.209063 0-.02-.199-.34875-.199-.34875-.01 0-.08.04-.15.089688zM132.209-37.56815c0 .46813-.209 1.51406-.478 2.47031-.468 1.62375-1.056 2.95844-1.624 3.685629-.099.129687-.299.32875-.388.408437-.14.099688-.329.179375-.439.179375h-.03v.408438h.07c.618-.069688 1.395-1.125629 2.152-2.938439.587-1.41469 1.046-3.10812 1.096-3.97469v-.13937l-.12-.06969c-.109-.05-.159-.08969-.239-.12969v.09969zm-1.654-3.28715c-.318.3187-.528.93621-.637 1.83278-.05.38843-.07.71718-.09 1.275-.01.18937-.01.84687-.01 1.60375 0 1.22531.01 2.70968.02 2.87875.03.49812.06.82687.11 1.11593.199 1.155316.687 1.733129 1.564 1.733129.308 0 .518-.079688 1.076-.428438l.179-.109375-.1-.169375c-.06-.099687-.099-.179375-.109-.179375-.01 0-.13.079688-.259.169375-.239.179375-.389.259063-.548.29875-.05.01-.11.02-.17.02-.328 0-.547-.179375-.707-.408437-.279-.408434-.398-1.085624-.438-2.330934 0-.21907-.01-1.19532-.01-2.16157 0-2.01218-.05-4.64187.677-4.98066.06-.03.07-.03.18-.03.099 0 .129 0 .199.02.627.2191.707 1.31504.727 2.45066l.01.5875.169.09969c.09.05969.17.09969.17.09969.01 0 .01-.05.01-.13938 0-.21937-.02-.6475-.04-.93656-.1-1.46406-.438-2.3109-1.006-2.53-.1-.04-.229-.0597-.349-.0597-.269 0-.448.1094-.618.2788zM138.806-34.6994c-.708.09969-1.116.89656-1.166 2.24125v.18938c.1.08968.209.17937.319.26906v-.32875c.01-.58781.06-.97625.169-1.285.12-.35875.339-.6375.737-.6775l.1-.01v-.40844h-.05c-.03 0-.08.01-.109.01zm5.568 2.27125c.01.55781.01.59781.07.80688.149.617496.587 1.145621 1.265 1.205309h.089v-.408438h-.029c-.319 0-.489-.209062-.618-.468125-.12-.229066-.159-.428436-.169-.846876-.02-.49781-.04-.74687-.11-1.06562-.149-.75719-.478-1.25532-.936-1.43438-.14-.05-.229-.06-.419-.06-.149 0-.179 0-.269.02-.348.08969-.617.32875-.807.71719l-.049.10969-.06-.11969c-.249-.48813-.608-.73719-1.086-.73719-.488 0-.857.25906-1.096.74719l-.05.10969-.059-.10969c-.229-.46813-.568-.71719-.996-.74719h-.09v.40844h.08c.448.04.627.33875.717.85687.04.28875.04.28875.04 1.69344v1.334689h.607v-1.992189c0-.77719.01-.91656.07-1.16562.1-.46813.289-.71719.777-.71719.478 0 .668.24906.767.71719.06.24906.07.39843.07 1.17562v1.982189h.607v-1.334689c0-1.38469 0-1.40469.04-1.67375.06-.40812.209-.67719.449-.79687.119-.05969.179-.06969.348-.06969.777 0 .847.86656.847 1.86281zm2.305 1.215314c-.299.189375-.349.219062-.448.27875-.13.06-.259.099687-.359.109687h-.08v.408438h.08c.239-.02.468-.119688.817-.32875.149-.089688.249-.139375.339-.209063 0-.02-.2-.34875-.2-.34875-.01 0-.079.04-.149.089688zM153.068-34.6994c-.708.09969-1.116.89656-1.166 2.24125v.18938c.1.08968.209.17937.319.26906v-.32875c.01-.58781.059-.97625.169-1.285.12-.35875.339-.6375.737-.6775l.1-.01v-.40844h-.05c-.03 0-.08.01-.109.01zm3.884 2.46063c-.01-.32875-.02-.43844-.049-.6875-.12-.84657-.429-1.43438-.887-1.66344-.149-.07969-.349-.11969-.538-.11969-.518 0-.837.27906-1.066.73719l-.059.11969-.05-.10969c-.22-.45813-.568-.71719-.996-.74719h-.09v.40844h.08c.448.04.627.33875.717.85687.039.28875.039.28875.039 1.69344v1.334689h.608v-1.992189c0-.77719.01-.91656.07-1.16562.05-.24907.129-.40844.249-.52782.129-.12937.259-.19937.518-.19937.08 0 .159.01.199.02.588.16937.628.90656.648 1.85281.01.55781.01.59781.069.80688.12.488121.419.876559.807 1.075934.14.069687.369.129375.508.129375h.05v-.408438h-.07c-.498-.049687-.757-.637501-.757-1.414371zm1.7 1.025934c-.298.189375-.348.219062-.448.27875-.129.06-.259.099687-.359.109687h-.079v.408438h.079c.24-.02.469-.119688.817-.32875.15-.089688.249-.139375.339-.209063 0-.02-.199-.34875-.199-.34875-.01 0-.08.04-.15.089688z"/><path fill="none" stroke="#000" stroke-miterlimit="10" stroke-width="0.1417" d="M23.1406-6.5039h130.2891M23.1406-10.79687h130.2891M23.1406-15.08594h130.2891M23.1406-17.230469h130.2891M23.1406-1.3594h130.2891M23.1406-.0703h130.2891"/><path d="M23.698805-7.87967c0 .16938-.039687.408442-.089687.567817-.049688.119687-.089688.189375-.159375.269062-.099688.089688-.179375.109375-.318751.129375v.408438h.069688c.36875-.04.6575-.31875.806875-.796875.059688-.169375.099688-.418437.099688-.587817v-.04968h-.408438v.05968zM25.5317-6.494978c.12968 0 .26906-.01.39843-.04.86657-.189063 1.50407-.91625 1.62375-1.852812v-.04969l.27875-.01h.27907v-.40844h-.06969c-.06969 0-.34875.02-.43844.03h-.04969l-.01-.09968c-.06968-.42844-.20906-.71719-.45812-.96625-.05-.05969-.09969-.10938-.12969-.17938-.21906-.36844-.56781-.6275-.98594-.71719-.07968-.01-.22906-.01968-.34875-.01968h-.10968c-.90625.12937-1.693129 1.01593-1.842817 2.11156-.01.06969-.01.19937-.01.31875 0 1.105937.846877 1.882812 1.872817 1.882812zm.82687-3.745312h-.07969c-.41843.03969-.76718.38844-.76718.81656 0 .19938.07.36875.23906.53813.27906.29875.75719.45812 1.335.45812h.05969l-.01.03969c-.09969.78719-.6475 1.484374-1.49407 1.484374-.77718 0-1.41468-.687184-1.41468-1.593754 0-.79687.44843-1.54406.99625-1.80312.17937-.08969.34875-.12938.52781-.12938.25906 0 .43844.08969.60781.18938zm0 .40812c.03969 0 .08969.01.12938.02.24906.07969.47812.34875.58781.6675.03.08969.06969.26907.06969.31875v.02h-.16938c-.42812-.02-.72719-.12968-.93625-.35875-.08969-.08968-.10969-.14937-.10969-.25906 0-.25875.22907-.40844.42844-.40844zM35.4756-9.50342c-.1791.42844-.2587.59782-.3884.86688-.5578 1.145312-1.0957 1.673437-1.7532 1.723124h-.0896v.408438h.0896c.5779-.04 1.0857-.408438 1.5641-1.145622.2988-.44813.4978-.82657.9659-1.86282.1297-.26875.2691-.5875.3288-.69718.0897-.20907.2591-.50813.2991-.58782h-.4085c-.1397.22938-.299.57782-.6078 1.295zm3.4566.79688c0 .46844.04.75719.1494 1.08594.2094.627497.6078 1.025934 1.1156 1.105622.05 0 .1097.01.1397.01h.0397v-.408438h-.0397c-.1197 0-.299-.069687-.3984-.159375-.1494-.129375-.2591-.34875-.3188-.637499-.06-.24906-.0696-.37844-.0796-.87656-.01-.43844-.02-.53782-.06-.77688-.1394-.6675-.4782-1.16562-.9363-1.345-.1594-.06969-.2491-.07969-.4381-.07969-.1597 0-.1894 0-.2691.02-.4484.11969-.8069.51813-1.0759 1.18532l-.0697.16937v-1.38469h-.6075v9.44344h.6075v-2.96844c.01-3.018433.01-3.028121.05-3.51625.0894-1.13562.3187-1.88281.6872-2.26125.1794-.17937.3487-.27906.6775-.27906.6672 0 .8265.76719.8265 1.67344zm2.32 1.404687c-.2988.189375-.3488.219062-.4482.27875-.1296.06-.259.099687-.3587.109687h-.0797v.408438h.0797c.2391-.02.4681-.119688.8169-.32875.1493-.089688.249-.139375.3387-.209063 0-.02-.1994-.34875-.1994-.34875-.01 0-.0796.04-.1493.089688zM47.209-7.87967c0 .16938-.0397.408442-.0897.567817-.0497.119687-.0897.189375-.1594.269062-.0997.089688-.1794.109375-.3188.129375v.408438h.0697c.3688-.04.6575-.31875.8069-.796875.0597-.169375.0997-.418437.0997-.587817v-.04968h-.4084v.05968zm1.7135 1.374692c.5278 0 .9162-.219063 1.2053-.488125l.0994-.089688v5.727811h.6078v-4.06437c0-2.67938 0-4.09407.01-4.16375.0197-.22907.0797-.47813.1694-.68719.0296-.06969.0396-.11969.0396-.11969-.03 0-.5778.14969-.5778.15938 0 0-.0197-.01969-.0497-.05969-.1993-.27875-.5878-.51781-.9962-.51781-.0597 0-.1194.00968-.1891.01968-.3787.05-.7572.26907-1.1156.62782-.4781.47812-.8069 1.10562-.9066 1.74312-.01.04969-.01.16938-.01.28875 0 1.006252.8369 1.623752 1.7135 1.623752zm1.3047-2.191562v.76719l-.0297.08968c-.1794.547817-.7072.926254-1.265.926254-.6278 0-1.1356-.527812-1.1356-1.295004 0-.20906.0296-.43812.0993-.66718.1397-.43844.3985-.87688.6875-1.14563.2591-.23906.5478-.36875.8169-.36875.3584 0 .6275.20938.7569.48813.06.10968.0797.20937.0797.30875 0 .11968-.01.39875-.01.89656zM57.1011-9.92154c0 1.05562-.01 1.34469-.0797 1.72312-.1294.826879-.4481 1.235317-.9663 1.285004h-.0897v.408438h.04c.0697 0 .1891-.02.2788-.04.7472-.189063 1.0559-1.045622 1.1756-1.962192.0397-.32875.0397-.40843.0497-1.35468v-.93657h-.4084v.87688zm-.6475-1.17563c0 .17938.0797.39844.2091.49813.1594.15937.3091.21906.6475.21906.2094 0 .2791 0 .7969-.08969.5181-.07968.7872-.11937 1.0062-.11937.5975 0 .8666.22906.8666.82687 0 .29875-.1894 1.245-.1894 1.52407 0 .936247.6975 1.663434 1.4944 1.733122h.0997v-.408438h-.07c-.5478-.059687-.9163-.627504-.9163-1.374684 0-.33875.0397-.89657.0397-1.15532 0-.23906-.01-.40843-.0397-.56781-.1393-.6875-.4384-.88656-1.275-.88656-.3884 0-1.1656.11937-1.7931.11937-.0597 0-.1194 0-.1494-.01-.0697-.01-.0496-.01.1294-.01h.1994v-.04968c0-.02-.01-.08969-.01-.13938-.0597-.35875-.2091-.6575-.5378-.6575-.3188 0-.5082.24906-.5082.54781zm.6475.21907v.07968h-.04c-.1193-.01968-.2787-.14937-.2787-.31875.01-.07968.0597-.13937.1394-.13937.1297 0 .1793.17937.1793.37844zm5.1556 3.576247c-.2988.189375-.3488.219062-.4481.27875-.1297.06-.2591.099687-.3588.109687h-.0797v.408438h.0797c.2391-.02.4681-.119688.8169-.32875.1494-.089688.2491-.139375.3387-.209063 0-.02-.1993-.34875-.1993-.34875-.01 0-.0797.04-.1494.089688zM69.8747-9.50342c-.1791.42844-.2588.59782-.3885.86688-.5578 1.145312-1.0956 1.673437-1.7531 1.723124h-.0897v.408438h.0897c.5778-.04 1.0856-.408438 1.5641-1.145622.2987-.44813.4978-.82657.9659-1.86282.1297-.26875.2691-.5875.3288-.69718.0896-.20907.259-.50813.299-.58782h-.4084c-.1397.22938-.2991.57782-.6078 1.295zm.0797-1.47406c0 .07969.02.15938.06.23906.0297.05969.0797.10938.4782.49813.239.24875.4781.49781.5378.55781.5778.6475.8665 1.12563.8665 1.62344 0 .47812-.3087.856874-.8565 1.035937-.1994.07-.4485.109687-.6375.109687-.4185 0-.6675-.27875-.6675-.617504 0-.09968.03-.20937.0797-.30875.04-.07.1493-.14968.209-.20937l-.0894-.15938c-.05-.08968-.0996-.16937-.0996-.17937h-.01c-.04 0-.2091.12969-.2891.22937-.1394.17907-.2091.39844-.2091.6175 0 .547817.4085 1.035942 1.066 1.035942.7472 0 1.4243-.259063 1.7831-.6375.2191-.239063.3287-.518122.3287-.816872 0-.15938-.03-.30875-.0896-.47813-.0897-.26906-.2691-.57781-.5182-.89656-.239-.29875-.5081-.5875-1.0559-1.11563-.4281-.40843-.4481-.42843-.4581-.52781-.01-.14937.1693-.17937.1693-.02-.01.03969-.02.08969-.04.12938-.0196.03-.0296.06-.0296.06968h.4084c.0297-.06968.0597-.15937.0597-.23906 0-.26875-.2191-.47812-.4981-.47812-.2888 0-.4982.24906-.4982.53812zM78.7735-9.92154c0 1.05562-.01 1.34469-.0797 1.72312-.1294.826879-.4481 1.235317-.9662 1.285004h-.0897v.408438h.04c.0697 0 .189-.02.2787-.04.7472-.189063 1.056-1.045622 1.1756-1.962192.0397-.32875.0397-.40843.0497-1.35468v-.93657h-.4084v.87688zm.0001-2.11188c.01 2.80907.01 3.06813.02 3.2075.0993.80688.3087 1.484067.7368 1.912504.2591.259063.5082.398438.9466.398438.4084 0 .5975-.089688.9263-.269063.1693-.089375.4581-.24875.4581-.25875 0-.02-.1891-.34875-.1991-.34875 0 0-.0897.049688-.1994.119688-.4481.25875-.6671.358437-.9759.358437-.5678 0-.8966-.438125-1.0362-1.295004-.0597-.40843-.0697-.6475-.0697-2.23125v-1.37468h2.2512v-.40844h-2.2512v-2.85875h-.6075v3.04812zM88.0275-9.92154c0 1.05562-.01 1.34469-.0797 1.72312-.1294.826879-.4481 1.235317-.9663 1.285004h-.0896v.408438h.04c.0696 0 .189-.02.2787-.04.7472-.189063 1.0559-1.045622 1.1756-1.962192.0397-.32875.0397-.40843.0497-1.35468v-.93657h-.4084v.87688zm.0001.31875c.01 1.08562.01 1.20531.02 1.30469.1493.886559.7071 1.613747 1.5637 1.773122.0597.01.1794.02.2891.02.1093 0 .219-.01.2887-.02.4681-.089688.8966-.368438 1.1753-.796875.02-.029688.04-.049688.04-.049688s.0297.049688.0597.109375c.1794.34875.4485.597813.7572.6975.0897.029688.2491.059688.3288.059688h.0396v-.408438h-.0396c-.07 0-.1694-.03-.2591-.069687-.2391-.119688-.3884-.398438-.4681-.836877-.05-.29875-.05-.28875-.06-1.68344v-1.295h-.6075v1.20532c-.01 1.335 0 1.26531-.0697 1.54406-.1594.577812-.4981 1.125624-1.1953 1.125624-.0897 0-.1794 0-.2391-.02-.5181-.129375-.8669-.607504-.9962-1.364684-.01-.07969-.01-.23907-.02-1.29469v-1.19563h-.6075v1.19563zm5.4414 2.300937c-.2988.189375-.3488.219062-.4482.27875-.1296.06-.259.099687-.3587.109687h-.0797v.408438h.0797c.239-.02.4681-.119688.8169-.32875.1493-.089688.249-.139375.3387-.209063 0-.02-.1994-.34875-.1994-.34875-.01 0-.0796.04-.1493.089688zM99.8612-10.78842c-.7075.09969-1.1159.89657-1.1656 2.24125v.18938c.0997.08969.2094.17937.3188.26906v-.32875c.01-.58781.0596-.97625.1693-1.285.1197-.35875.3388-.6375.7372-.6775l.0997-.01v-.40844h-.05c-.0297 0-.0797.01-.1094.01zm2.8688.75719c0 .39844.249.80688.7172 1.11563.0497.04.3287.16937.3287.20906 0 .04-.04.24906-.0697.37875-.1693.69719-.5381 1.185312-1.0062 1.344687-.1194.039687-.1991.059687-.3288.059687h-.0797c-.1593 0-.179 0-.2887-.029687-.6675-.169375-1.1156-.876567-1.1156-1.773127 0-.83687-.1994-1.9925-.8169-2.07219h-.0597v.40844h.0597c.1994.03.2887.17938.3087.49813 0 .16937-.0996.95625-.0996 1.25531 0 .99594.6774 1.882499 1.6037 2.081874.1397.029688.2791.049688.4184.049688.5479 0 1.0163-.29875 1.285-.6575.2094-.259063.3785-.607502.4782-.966252.04-.12937.0997-.39844.0997-.43812 0-.02 0-.02.02-.02.0296.02.209.05968.3087.07968.1594.03.3288.04969.4981.05969h.1494v-.40844h-.0697c-.1994 0-.4981-.03968-.7272-.08968l-.1297-.02969v-.17938c0-.51812-.0697-.91656-.229-1.23531-.1494-.30875-.3785-.48812-.6075-.48812-.3985 0-.6475.46843-.6475.84687zm.7372-.51812c.0197 0 .0497.01.0697.02.1493.09968.249.52812.2687 1.16562v.22906l-.0697-.04c-.3984-.21906-.6175-.49812-.6175-.79687 0-.17938.1494-.57781.3488-.57781zM111.2892-10.78842c-.7075.09969-1.1159.89657-1.1656 2.24125v.18938c.0997.08969.2093.17937.3187.26906v-.32875c.01-.58781.0597-.97625.1694-1.285.1197-.35875.3387-.6375.7372-.6775l.0997-.01v-.40844h-.05c-.0297 0-.0797.01-.1094.01zm4.5822.76719c0 .45813.3284.92625.9462 1.235.0597.04.1194.06.1194.07 0 0 0 .05969-.01.13938-.0597.71718-.2091 1.175309-.4681 1.424372-.1494.149375-.2988.229062-.5778.229062-.2988 0-.4282-.089687-.5975-.26875-.3488-.348754-.6175-1.065934-.7472-2.012184-.0497-.31875-.0797-.72719-.0797-.96625v-.08969h-.6075v.15937c.01.17938.0297.36844.0697.82657.0597.60781.0597.7175.0597 1.07593 0 .6775-.0797 1.285004-.6872 1.285004-.1397 0-.2791-.039687-.3985-.109687-.3687-.229063-.5778-.836567-.5778-1.673437 0-.09938 0-.24906-.01-.33844-.0697-1.08594-.3487-1.70344-.8068-1.76344h-.0597v.40844h.0597c.1993.03.2887.17938.3087.49813 0 .16937-.0897.95625-.0897 1.25531 0 1.175312.6275 2.021874 1.4147 2.121562.0597.01.1094.01.1594.01.1194 0 .219-.02.3287-.079688.3285-.159375.5378-.6375.6175-1.424374.02-.20938.02-.21938.0397-.16938 0 .02.04.09969.0697.17938.3288.746874.7272 1.244999 1.1656 1.424374.1394.049688.1991.059688.3785.059688.1297 0 .1693 0 .269-.02.2788-.069688.5278-.249063.7072-.527813.4285-.627499.4485-1.514059.4581-1.514059.01 0 .05.01.1097.02.2291.05968.4582.09937.6972.10937h.1494v-.40844h-.0697c-.1991 0-.4978-.03968-.7272-.08968l-.1294-.02969v-.17938c0-.51812-.0696-.91656-.229-1.23531-.1494-.30875-.3785-.48812-.6078-.48812-.3985 0-.6472.48812-.6472.85687zm.7369-.52812c.02 0 .05.01.0696.02.1497.09968.2491.52812.2691 1.16562v.22906l-.0697-.04c-.3984-.21906-.6175-.49812-.6175-.79687 0-.17938.1494-.57781.3485-.57781zM124.432-10.78842c-.707.09969-1.116.89657-1.166 2.24125v.18938c.1.08969.21.17937.319.26906v-.32875c.01-.58781.06-.97625.17-1.285.119-.35875.338-.6375.737-.6775l.099-.01v-.40844h-.05c-.029 0-.079.01-.109.01zm1.743.95625c-.119-.18906-.289-.39843-.458-.54781-.299-.24906-.657-.38844-1.026-.41844h-.11v.40844h.09c.498.04.896.40844 1.086 1.00625.079.23906.119.48813.119.73719 0 .48812-.149.95625-.408 1.294999-.279.31875-.508.438125-1.026.438125-.458-.01-.628-.099687-.867-.269062-.089.099687-.179.199375-.279.289062.289.28875.658.378438 1.235.378438.24 0 .26 0 .379-.02.578-.129375 1.006-.497813 1.265-.95625l.06.089687c.239.378438.608.6775.996.806875.219.069688.319.079688.578.079688.378 0 .727-.059688 1.125-.219063.18-.059687.588-.259062.648-.31875l-.09-.159375c-.06-.089687-.099-.169375-.109-.169375 0-.01-.05.01-.12.049688-.378.209375-.767.33875-1.135.398437-.08.01-.21.01-.319.01-.11 0-.209 0-.259-.01-.439-.099375-.777-.448125-.946-.985934-.08-.23907-.12-.47813-.12-.71719 0-.57781.229-1.11594.637-1.45438.25-.21937.558-.34875.887-.34875.299 0 .578.12938.777.32875.09-.09968.179-.19937.279-.28875-.219-.26906-.668-.46843-1.116-.48812-.089 0-.199.00969-.239.00969-.637.08968-1.235.52812-1.534 1.04593zM135.62-10.78842c-.708.09969-1.116.89657-1.166 2.24125v.18938c.1.08969.209.17937.319.26906v-.32875c.01-.58781.059-.97625.169-1.285.12-.35875.339-.6375.737-.6775l.1-.01v-.40844h-.05c-.03 0-.08.01-.109.01zm.567.87657c0 .20937-.02.29906-.07.57781-.069.44844-.069.46812-.069.6875 0 1.274999.936 2.141562 1.972 2.141562.737 0 1.116-.388438 1.395-.94625l.06-.119692v.906567l-.17.109687c-1.036.717188-1.853 1.484066-2.391 2.241246-.458.6575-.707 1.41438-.707 2.12157 0 1.12562.618 2.13187 1.684 2.13187 1.454 0 1.982-1.71344 2.141-3.27719.04-.37875.04-.46843.05-1.87281v-1.364686l.229-.139375c.12-.07.299-.179375.389-.229375.089-.049687.159-.099375.159-.099375 0-.01-.179-.33875-.199-.34875 0 0-.04.02-.329.189375l-.249.149375v-3.745629h-.617v.7175c-.01.70719-.01.88657-.05 1.215-.11 1.24532-.498 1.852817-1.225 1.942504-.06.01-.12.01-.18.01-.179 0-.348-.039687-.518-.119375-.418-.209375-.707-.647499-.817-1.245309-.019-.09969-.019-.17938-.029-.56782-.02-.97625-.09-1.9525-.847-1.9525h-.03v.40844c.289.04.418.12969.418.47813zm3.288 5.16c-.01 1.25531-.01 1.42437-.04 1.81312-.12 1.62344-.608 2.47031-1.564 2.47031-.309 0-.588-.12968-.817-.34875-.289-.30875-.478-.72718-.478-1.33468 0-.14938 0-.31875.02-.41844.089-.56781.328-1.11563.717-1.60375.518-.6475 1.195-1.285 2.022-1.882813l.14-.099375v1.404378zM147.103-9.92154c0 1.05562-.01 1.34469-.08 1.72312-.129.826879-.448 1.235317-.966 1.285004h-.09v.408438h.04c.07 0 .189-.02.279-.04.747-.189063 1.056-1.045622 1.176-1.962192.039-.32875.039-.40843.049-1.35468v-.93657h-.408v.87688zm-.598-1.22531c0 .27875.179.55781.468.70718.18.08969.309.10969.558.10969s.379-.02.947-.17937c.378-.09969.607-.13938.806-.13938.618 0 1.156.47813 1.156 1.09563 0 .21906-.06.46812-.17.73718-.229.57782-.747 1.295-1.444 2.022192l-.149.149375c.089.099375.189.189062.289.27875l.129-.119375c.408-.36875.757-.577813 1.146-.6575.079-.02.179-.02.288-.02.509 0 .817.149375 1.116.438437.08.069688.229.249063.219.259063 0 0-.089.069687-.199.149375-.747.547812-1.554 1.175313-2.062 1.623433-.687.59782-1.215 1.305-1.375 2.30125-.02.08969-.02.25907-.02.40844 0 1.02594.538 1.75313 1.256 1.9025.079.02.189.02.299.02.089 0 .179 0 .239-.01.358-.07969.707-.28906 1.085-.6475.628-.59781 1.295-1.63375 1.654-2.6.169-.47812.259-.86656.259-1.46406 0-.6575-.11-1.065938-.339-1.514376-.04-.089375-.079-.169062-.069-.169062.139-.089688.746-.488125.886-.577813 0-.02-.189-.34875-.199-.34875-.02 0-.349.209063-.687.428438l-.249.169375-.09-.109688c-.389-.398437-.897-.697184-1.594-.697184-.14 0-.279.01968-.418.04968-.1.01-.19.059692-.259.059692 0 0 .04-.059692.099-.129372.598-.79688.907-1.49407.907-2.06188 0-.84687-.688-1.38469-1.485-1.38469-.219 0-.488.03969-.916.12938-.657.14937-.807.16937-1.116.16937-.268 0-.388-.01-.498-.06968-.109-.04969-.189-.15938-.189-.26907 0-.07968.06-.13937.129-.14937.06 0 .1.03.14.08969.02.06968.05.20906.05.29875v.06968h.408v-.04968c0-.07969-.03-.24907-.069-.35844-.09-.27906-.259-.44844-.459-.45844-.289 0-.478.22906-.478.51813zm5.877 6.425c0 .22906-.02.46812-.069.70718-.05.30875-.19.76688-.339 1.13563-.438 1.07562-1.016 1.8925-1.564 2.23125-.199.11969-.418.17937-.627.17937-.23 0-.439-.06968-.628-.21906-.349-.24906-.568-.6975-.568-1.325 0-.11937 0-.24906.01-.32875.1-.5975.388-1.16531.857-1.65344.229-.23906.767-.6975 1.514-1.275.299-.22937 1.105-.836871 1.115-.836871 0 0 .02.04.05.079688.16.33875.249.836873.249 1.305003z"/></svg>