<?xml version="1.0" encoding="UTF-8" standalone="no"?>
<svg
   xmlns:dc="http://purl.org/dc/elements/1.1/"
   xmlns:cc="http://creativecommons.org/ns#"
   xmlns:rdf="http://www.w3.org/1999/02/22-rdf-syntax-ns#"
   xmlns:svg="http://www.w3.org/2000/svg"
   xmlns="http://www.w3.org/2000/svg"
   xmlns:sodipodi="http://sodipodi.sourceforge.net/DTD/sodipodi-0.dtd"
   xmlns:inkscape="http://www.inkscape.org/namespaces/inkscape"
   version="1.1"
   width="470.0px"
   height="150.0px"
   overflow="visible"
   viewBox="0.0 0.0 470.0 150.0"
   enable-background="new 0.0 0.0 470.0 150.0"
   id="svg2"
   sodipodi:version="0.32"
   inkscape:version="0.46"
   sodipodi:docname="schreibschriftcrop.svg"
   inkscape:output_extension="org.inkscape.output.svg.inkscape">
  <metadata
     id="metadata29">
    <rdf:RDF>
      <cc:Work
         rdf:about="">
        <dc:format>image/svg+xml</dc:format>
        <dc:type
           rdf:resource="http://purl.org/dc/dcmitype/StillImage" />
      </cc:Work>
    </rdf:RDF>
  </metadata>
  <sodipodi:namedview
     inkscape:window-height="933"
     inkscape:window-width="1459"
     inkscape:pageshadow="2"
     inkscape:pageopacity="0.0"
     guidetolerance="10.0"
     gridtolerance="10.0"
     objecttolerance="10.0"
     borderopacity="1.0"
     bordercolor="#666666"
     pagecolor="#ffffff"
     id="base"
     showgrid="false"
     inkscape:zoom="6.2341689"
     inkscape:cx="230.24816"
     inkscape:cy="61.773897"
     inkscape:window-x="22"
     inkscape:window-y="47"
     inkscape:current-layer="svg2" />
  <defs
     id="defs4">
    <inkscape:perspective
       sodipodi:type="inkscape:persp3d"
       inkscape:vp_x="0 : 75 : 1"
       inkscape:vp_y="0 : 1000 : 0"
       inkscape:vp_z="470 : 75 : 1"
       inkscape:persp3d-origin="235 : 50 : 1"
       id="perspective31" />
  </defs>
  <g
     id="g8">
    <g
       transform="matrix(1.0 0.0 0.0 1.0 0.0 0.0)"
       id="g10">
      <path
         fill="none"
         stroke="#000000"
         stroke-width="1.0"
         stroke-linecap="round"
         stroke-linejoin="round"
         d="M 301.6 84.45 L 298.4 87.7"
         id="path12" />
      <path
         fill="none"
         stroke="#000000"
         stroke-width="1.0"
         stroke-linecap="round"
         stroke-linejoin="round"
         d="M 314.6 74.45 L 322.6 74.45"
         id="path14" />
      <path
         fill="none"
         stroke="#000000"
         stroke-width="1.0"
         stroke-linecap="round"
         stroke-linejoin="round"
         d="M 240.6 8.85 C 242.43333 11.416667 244.43333 11.283334 246.6 8.45"
         id="path16" />
      <path
         fill="none"
         stroke="#000000"
         stroke-width="1.0"
         stroke-linecap="round"
         stroke-linejoin="round"
         d="M 117.6 65.45 L 107.6 87.85"
         id="path18" />
      <path
         fill="none"
         stroke="#000000"
         stroke-width="1.0"
         stroke-linecap="round"
         stroke-linejoin="round"
         d="M 79.6 117.45 C 80.26666 119.183334 81.6 119.183334 83.6 117.45"
         id="path20" />
      <path
         fill="none"
         stroke="#000000"
         stroke-width="1.0"
         stroke-linecap="round"
         stroke-linejoin="round"
         d="M 430.6 68.45 C 432.13333 64.28333 431.13333 63.283333 427.6 65.45 C 425.63333 67.549995 423.63333 71.48333 421.6 77.25 C 425.0 74.35 428.0 71.416664 430.6 68.45 Z M 421.6 77.25 L 419.6 83.45 C 419.23334 87.683334 421.03333 88.35 425.0 85.45 C 427.33334 83.28333 428.03336 80.61667 427.1 77.45 C 426.7 75.98333 425.33334 76.28333 423.0 78.35 M 413.6 83.45 C 416.46667 81.416664 419.13333 79.35 421.6 77.25 M 406.9 77.7 L 406.65 77.9 C 406.01666 78.5 405.46667 79.2 405.0 80.0 C 404.63333 80.53333 404.33334 81.11667 404.1 81.75 C 403.43335 83.35 403.25 84.7 403.55 85.8 C 403.88333 86.9 404.58334 87.46667 405.65 87.5 C 406.68335 87.46667 407.81668 86.9 409.05 85.8 C 410.11667 84.833336 410.96667 83.66667 411.6 82.3 L 412.3 80.55 C 412.56668 79.450005 412.58334 78.5 412.35 77.7 C 412.05 76.566666 411.38333 76.0 410.35 76.0 C 409.28333 76.0 408.13333 76.566666 406.9 77.7 Z M 417.6 67.45 C 418.56665 64.816666 421.2333 63.65 425.6 63.95 M 400.6 84.05 L 405.0 80.0 M 396.0 87.45 C 396.53333 88.21667 398.06665 87.083336 400.6 84.05 M 395.65 82.25 C 394.88333 84.48333 395.0 86.21666 396.0 87.45 M 395.65 82.25 C 395.01666 83.61667 394.16666 84.78333 393.1 85.75 C 391.86667 86.85 390.73334 87.416664 389.7 87.45 C 388.63333 87.416664 387.93332 86.85 387.6 85.75 C 387.3 84.65 387.4833 83.3 388.15 81.7 C 388.78333 80.1 389.71667 78.75 390.95 77.65 C 392.18332 76.51666 393.3333 75.95 394.4 75.95 C 395.43335 75.95 396.1 76.51666 396.4 77.65 C 396.66666 78.51666 396.61667 79.566666 396.25 80.8 L 395.65 82.25 Z M 396.25 80.8 C 396.81668 79.5 397.6 78.049995 398.6 76.45 M 395.9 81.7 L 396.25 80.8 M 412.3 80.55 L 417.6 67.45 M 395.65 82.25 L 395.9 81.7 M 445.6 96.85 C 442.8 98.51666 441.46664 98.18333 441.6 95.85 C 441.5 93.98334 444.55 91.06667 450.75 87.1 C 449.01666 91.26666 447.3 94.51666 445.6 96.85 Z M 450.75 87.1 L 452.35 82.85 C 451.71667 83.95 450.95 84.916664 450.05 85.75 M 450.05 85.75 C 448.81668 86.85 447.68335 87.416664 446.65 87.45 C 445.5833 87.416664 444.8833 86.85 444.55 85.75 C 444.25 84.65 444.43335 83.3 445.1 81.7 L 445.65 80.5 C 446.25 79.4 447.0 78.450005 447.9 77.65 C 449.13333 76.51666 450.28333 75.95 451.35 75.95 C 452.38333 75.95 453.05 76.51666 453.35 77.65 C 453.58334 78.45 453.56668 79.38333 453.3 80.45 L 452.35 82.85 C 451.71667 83.95 450.95 84.916664 450.05 85.75 Z M 453.6 84.45 L 450.75 87.1 M 445.65 80.5 L 442.6 83.45 M 455.1 75.95 L 453.3 80.45 M 437.35 75.8 C 438.05 75.833336 438.53333 76.083336 438.8 76.55 C 439.1 77.083336 439.03336 77.71667 438.6 78.45 L 434.6 85.45 C 434.33334 86.916664 434.85 87.666664 436.15 87.7 C 437.48334 87.7 438.96667 86.95 440.6 85.45 M 432.6 79.45 C 433.93335 76.916664 435.5167 75.7 437.35 75.8 M 456.2 79.35 C 456.93332 77.61667 458.41666 76.53333 460.65 76.1 C 462.88333 75.7 463.53333 76.48333 462.6 78.45 C 460.93335 80.78333 458.6 82.36667 455.6 83.2 C 455.26666 82.36666 455.46667 81.08333 456.2 79.35 Z M 455.6 83.2 C 455.7 86.76667 457.03336 88.183334 459.6 87.45 C 461.0 86.816666 462.33334 85.48333 463.6 83.45 M 454.6 83.45 L 455.6 83.2 M 349.6 19.45 C 351.46667 18.016666 352.71667 16.366667 353.35 14.5 C 353.95 12.599999 353.36667 11.95 351.6 12.55 C 349.83334 13.15 348.21667 16.133333 346.75 21.5 L 349.6 19.45 Z M 346.75 21.5 L 346.7 21.6 L 346.45 21.75 L 346.7 21.6 Z M 340.2 35.45 C 341.63333 31.483334 343.71667 26.916666 346.45 21.75 C 343.61667 23.583334 340.48334 24.95 337.05 25.85 L 342.6 12.45 M 337.05 25.85 C 334.41666 31.716667 332.4 35.25 331.0 36.45 C 327.86667 39.25 326.73334 38.583332 327.6 34.45 C 329.13333 30.550001 332.28333 27.683334 337.05 25.85 Z M 342.6 12.45 L 335.6 15.45 M 347.0 34.4 C 342.03333 39.466667 339.76666 39.816666 340.2 35.45 M 296.4 38.45 C 304.9 31.783333 311.96667 23.116665 317.6 12.45 L 307.6 35.45 C 307.5 37.216667 307.95 38.066666 308.95 38.0 C 309.91666 37.966667 311.26666 37.016666 313.0 35.15 C 315.9 32.05 318.9 27.566666 322.0 21.7 L 325.05 15.55 L 325.55 14.45 L 326.0 13.45 M 315.6 36.45 C 315.46667 39.38333 317.80002 38.716663 322.6 34.45 M 293.4 34.45 C 293.23334 37.88333 294.23334 39.216663 296.4 38.45 M 322.0 21.7 C 319.56668 26.800001 317.43335 31.716667 315.6 36.45 M 352.5 61.65 C 354.33334 61.65 355.31668 62.916668 355.45 65.45 C 355.61667 67.98333 354.91666 71.049995 353.35 74.65 C 351.75 78.21667 349.75 81.26667 347.35 83.8 C 344.95 86.333336 342.83334 87.6 341.0 87.6 C 339.13333 87.6 338.11667 86.333336 337.95 83.8 C 337.81668 81.26667 338.55002 78.21667 340.15 74.65 C 341.71667 71.05 343.7 67.98334 346.1 65.45 C 348.5 62.916668 350.63333 61.65 352.5 61.65 Z M 328.1 84.45 C 327.73334 85.583336 326.9 86.583336 325.6 87.45 C 323.33334 87.98333 322.6667 86.649994 323.6 83.45 C 325.6 80.28333 328.53333 78.03333 332.4 76.7 L 328.1 84.45 Z M 339.6 61.95 C 337.4 66.88333 335.0 71.799995 332.4 76.7 C 334.8 74.833336 337.53333 73.41667 340.6 72.45 M 331.6 64.45 L 339.6 61.95 M 359.2 84.95 L 359.55 84.4 C 362.68332 81.8 365.41666 78.86667 367.75 75.6 L 369.45 73.1 C 365.38333 82.46667 364.43332 87.25 366.6 87.45 C 368.46667 87.683334 370.13333 86.35 371.6 83.45 M 362.6 68.45 C 366.86667 61.45 370.4 60.11667 373.2 64.45 M 369.75 72.55 C 371.68332 69.35 373.3 65.85 374.6 62.05 M 352.1 84.45 C 352.93335 88.75 355.30002 88.916664 359.2 84.95 M 367.75 75.6 C 362.85 76.33333 361.13333 73.95 362.6 68.45 M 369.45 73.1 L 369.75 72.55 M 381.1 120.45 C 380.73334 123.88333 382.56668 124.049995 386.6 120.95 C 385.1 122.95 384.1 124.78333 383.6 126.45 C 382.1667 128.98334 381.9167 130.76668 382.85 131.8 C 383.75 132.8 384.71667 133.0 385.75 132.4 C 386.78333 131.8 387.51666 130.78334 387.95 129.35 C 388.38333 127.88334 388.25 126.78334 387.55 126.05 C 386.81668 125.316666 385.83334 125.666664 384.6 127.1 M 378.6 123.45 C 379.76666 122.85 380.6 121.85 381.1 120.45 M 365.5 138.25 C 365.03333 137.98334 364.93332 137.38333 365.2 136.45 C 365.96667 135.31667 367.25 134.33333 369.05 133.5 L 369.05 133.75 M 369.1 133.45 L 371.6 131.45 M 367.6 137.45 C 366.6667 138.28333 365.96667 138.54999 365.5 138.25 M 368.5 136.0 C 368.36667 136.63333 368.06668 137.11667 367.6 137.45 M 369.05 133.5 L 369.1 133.45 L 369.05 133.75 M 368.8 134.6 L 368.5 136.0 M 366.2 132.65 L 367.25 132.9 L 367.45 132.85 M 358.85 132.95 C 359.58334 134.08333 362.35 131.18333 367.15 124.25 C 365.01666 127.71667 364.7 130.51666 366.2 132.65 M 360.65 124.35 C 358.5833 128.75 357.9833 131.61667 358.85 132.95 M 356.0 131.0 C 357.33334 129.53334 358.88333 127.31667 360.65 124.35 L 362.7 120.65 M 351.9 132.35 C 352.8 133.45 354.16666 133.0 356.0 131.0 M 353.55 124.2 C 351.55 128.53333 351.0 131.25 351.9 132.35 M 353.55 124.2 L 355.6 120.65 M 369.2 121.15 L 367.15 124.25 C 365.01666 127.71667 364.7 130.51666 366.2 132.65 M 351.2 126.65 L 353.55 124.2 M 398.6 121.05 C 395.1 126.41667 393.80002 129.91667 394.7 131.55 C 395.6 133.15 396.9 133.11665 398.6 131.45 C 400.4 129.41666 400.23334 127.48332 398.1 125.65 C 400.8 126.88333 403.2333 126.11666 405.4 123.35 C 403.76666 126.11667 402.96667 128.75 403.0 131.25 C 402.96667 133.71666 404.83334 133.45 408.6 130.45 M 393.6 125.45 L 398.6 121.05 M 405.4 123.35 L 406.95 120.85 M 329.3 132.15 C 330.19998 133.25 331.56665 132.8 333.4 130.8 C 334.73334 129.33334 336.28333 127.11668 338.05 124.15 C 335.98334 128.55 335.38333 131.41667 336.25 132.75 C 336.98334 133.88333 339.75 130.98334 344.55 124.05 C 342.41666 127.51667 342.1 130.31667 343.6 132.45 C 345.1 133.11667 346.43335 132.45 347.6 130.45 M 333.0 120.45 L 330.95 124.0 C 328.95 128.33333 328.4 131.04999 329.3 132.15 M 338.05 124.15 L 340.1 120.45 M 344.55 124.05 L 346.6 120.95 M 328.6 126.45 L 330.95 124.0 C 328.95 128.33333 328.4 131.04999 329.3 132.15 M 449.9 120.9 C 450.93335 120.9 451.6 121.46667 451.9 122.6 C 452.16666 123.46667 451.93332 124.75 451.2 126.45 C 450.53336 128.31667 449.6667 129.73334 448.6 130.7 C 447.36667 131.8 446.23334 132.36667 445.2 132.4 C 444.13333 132.36667 443.43332 131.8 443.1 130.7 C 442.8 129.6 442.9833 128.25 443.65 126.65 C 444.28333 125.05 445.21667 123.700005 446.45 122.6 C 447.68332 121.46667 448.8333 120.9 449.9 120.9 Z M 462.45 127.1 C 458.31668 127.5 457.36667 125.95 459.6 122.45 C 461.7 120.083336 463.36667 119.75 464.6 121.45 M 459.1 130.45 L 462.45 127.1 L 463.5 125.7 C 461.93332 128.8 461.43332 130.71667 462.0 131.45 C 462.73334 133.28333 464.26666 133.28333 466.6 131.45 M 463.55 125.65 C 464.35 124.25 465.03336 122.51666 465.6 120.45 M 452.6 129.45 C 452.8 133.28333 454.96664 133.61665 459.1 130.45 M 463.5 125.7 L 463.55 125.65 M 433.4 126.0 C 433.8333 124.666664 433.9 123.58333 433.6 122.75 C 432.5 119.950005 430.5 120.183334 427.6 123.45 M 433.4 126.0 C 432.96667 127.4 432.03336 129.05 430.6 130.95 C 427.7 133.71667 425.7 133.55 424.6 130.45 M 428.6 125.95 L 433.4 126.0 M 417.6 121.45 C 415.03333 125.549995 414.03333 128.88333 414.6 131.45 C 415.5 132.91666 416.83334 132.91666 418.6 131.45 C 420.06665 130.21667 420.26666 128.55 419.2 126.45 C 418.13333 125.65 416.93332 125.98334 415.6 127.45 M 413.6 125.45 L 417.6 121.45 M 441.2 120.45 L 439.1 125.85 L 436.3 132.95 M 443.6 125.85 L 439.1 125.85 L 436.3 132.95 M 436.6 125.45 C 438.53333 124.21667 440.06665 122.55 441.2 120.45 M 272.6 38.45 C 281.1 31.783333 288.43335 23.116665 294.6 12.45 L 285.6 35.45 C 284.76666 40.583336 286.9 39.916668 292.0 33.45 M 269.6 34.45 C 269.43335 37.88333 270.43335 39.216663 272.6 38.45 M 238.7 14.0 L 230.35 35.4 C 229.41667 38.833332 230.41667 39.5 233.35 37.4 C 237.65001 33.166668 241.31668 28.05 244.35 22.05 C 240.61667 30.683334 238.95 35.600002 239.35 36.8 C 239.75 39.733334 241.41667 38.933334 244.35 34.4 M 230.95 17.4 C 235.75 12.099999 238.33333 10.966666 238.7 14.0 M 244.35 22.05 L 246.25 17.9 L 248.35 12.4 M 248.85 12.5 L 246.25 17.9 L 248.35 12.4 M 259.2 23.7 C 266.6 13.1 271.06668 10.216667 272.6 15.05 M 258.7 24.4 L 259.2 23.7 C 263.46667 22.233334 264.93335 23.816668 263.6 28.45 C 258.96667 36.716667 258.63333 40.05 262.6 38.45 C 264.96667 37.083336 266.30002 35.750004 266.6 34.45 M 262.0 14.45 C 261.23334 17.849998 260.13333 21.166664 258.7 24.4 C 256.66666 28.933334 253.96666 33.283333 250.6 37.45 C 248.26668 39.716667 247.26668 38.383335 247.6 33.45 M 256.6 15.45 C 261.43335 12.383333 263.23334 12.05 262.0 14.45 M 258.7 66.95 L 257.75 69.1 C 253.38333 79.4 251.33333 85.183334 251.6 86.45 C 252.23334 87.78333 253.56667 87.78333 255.6 86.45 C 259.4 82.85 262.61667 78.833336 265.25 74.4 L 265.45 74.1 L 266.0 73.05 L 266.8 71.55 C 268.3 68.683334 269.56665 65.65 270.6 62.45 M 261.1 86.4 C 261.6 88.1 263.1 87.78333 265.6 85.45 L 267.6 83.45 M 243.6 87.45 C 247.66667 86.78333 252.38333 80.666664 257.75 69.1 M 260.6 62.45 L 258.7 66.95 M 265.25 74.4 C 261.85 80.5 260.46667 84.5 261.1 86.4 M 242.6 81.85 C 240.76668 85.51666 241.1 87.38333 243.6 87.45 M 283.6 64.45 C 281.33334 70.95 278.33334 77.28333 274.6 83.45 C 273.56665 87.85 274.9 88.85 278.6 86.45 C 282.7 82.38333 286.13333 77.88333 288.9 72.95 C 284.6 81.61666 283.1667 86.316666 284.6 87.05 C 286.13333 87.61667 288.13333 86.75 290.6 84.45 C 293.5 81.01667 296.05 77.36667 298.25 73.5 L 298.8 72.55 C 300.66666 69.15 302.26666 65.583336 303.6 61.85 M 294.0 86.45 C 292.93332 85.683334 294.34998 81.36667 298.25 73.5 M 275.6 66.85 C 281.13333 61.316666 283.8 60.516666 283.6 64.45 M 288.9 72.95 C 290.76666 69.65 292.33334 66.15 293.6 62.45 M 296.2 86.95 C 295.1 87.049995 294.36667 86.88333 294.0 86.45 M 315.65 65.5 C 318.05 62.966667 320.18332 61.7 322.05 61.7 C 323.88333 61.7 324.86667 62.966667 325.0 65.5 C 325.16666 68.03333 324.46664 71.1 322.9 74.7 C 321.3 78.26667 319.3 81.31667 316.9 83.85 C 314.5 86.38333 312.38333 87.65 310.55 87.65 C 308.68332 87.65 307.66666 86.38333 307.5 83.85 L 307.5 83.35 M 313.95 67.5 L 315.65 65.5 M 298.25 88.95 L 298.0 90.45 C 297.5 92.01667 296.7 93.216675 295.6 94.05 C 293.7 94.88334 293.03336 94.350006 293.6 92.45 C 294.0 90.45 295.48334 88.96667 298.05 88.0 C 298.18332 88.13333 298.25 88.45 298.25 88.95 Z M 298.05 88.0 L 298.4 87.7 M 224.5 17.95 L 222.6 22.1 C 218.86667 30.733334 217.2 35.65 217.6 36.85 C 218.0 39.783333 219.66667 38.983334 222.6 34.45 M 224.5 17.95 L 226.6 12.45 M 211.6 37.45 C 215.90001 33.216667 219.56668 28.1 222.6 22.1 M 208.6 35.45 C 207.66667 38.88333 208.66667 39.55 211.6 37.45 M 216.95 14.05 L 208.6 35.45 M 227.1 12.55 L 224.5 17.95 M 209.2 17.45 C 214.0 12.15 216.58333 11.016666 216.95 14.05 M 202.95 12.45 C 204.71667 13.116667 205.38335 14.450001 204.95 16.45 C 204.48334 18.45 203.5 20.083334 202.0 21.35 C 200.5 22.583334 198.53334 23.283335 196.1 23.45 C 200.40001 23.916666 202.26668 25.833332 201.7 29.2 C 201.1 32.566666 199.61667 35.166664 197.25 37.0 C 194.84999 38.833332 192.81665 39.266666 191.15 38.3 C 189.41667 37.333332 188.43333 35.38333 188.2 32.45 M 196.6 15.45 C 199.06667 12.783333 201.18333 11.783333 202.95 12.45 M 175.6 12.85 L 164.6 37.95 L 176.7 23.6 L 184.6 14.15 C 187.90001 10.983333 190.23334 11.583333 191.6 15.95 M 154.6 37.45 C 150.86667 39.916668 149.2 39.25 149.6 35.45 C 150.83333 33.216667 155.53333 30.050001 163.7 25.95 C 161.83333 29.550001 158.8 33.383335 154.6 37.45 Z M 165.6 15.45 C 166.23334 18.683332 165.6 22.183332 163.7 25.95 C 167.93333 23.083334 171.90001 18.716667 175.6 12.85 M 156.6 16.45 C 161.03334 11.016666 164.03334 10.683332 165.6 15.45 M 176.7 23.6 C 172.2 38.5 174.5 42.11667 183.6 34.45 M 183.1 73.2 C 184.5 70.53333 186.0 68.28333 187.6 66.45 C 191.90001 61.083332 195.23334 60.416664 197.6 64.45 M 183.6 62.45 C 184.7 66.01667 184.53333 69.600006 183.1 73.2 L 181.7 76.15 L 180.95 77.9 L 181.55 76.4 C 179.51666 79.833336 176.38333 83.28333 172.15 86.75 C 169.18333 88.78333 167.33334 87.683334 166.6 83.45 M 180.6 85.85 C 179.63333 83.71667 179.75 81.066666 180.95 77.9 M 172.1 67.65 C 177.3 61.75 181.13333 60.016666 183.6 62.45 M 181.55 76.4 L 181.7 76.15 M 191.6 83.45 C 186.40001 88.049995 182.73334 88.85 180.6 85.85 M 160.2 69.35 C 158.33333 75.48334 159.46666 77.850006 163.6 76.45 C 165.43333 75.75 167.01666 73.950005 168.35 71.05 C 169.61667 68.28333 170.03334 66.08333 169.6 64.45 C 168.1 61.583332 165.51668 61.9 161.85 65.4 L 160.2 69.35 Z M 161.85 65.4 L 161.65 65.45 L 162.6 63.45 L 161.85 65.4 Z M 151.85 85.45 C 148.51668 88.816666 146.05 88.48333 144.45 84.45 M 161.3 66.15 L 161.65 65.45 M 153.6 64.45 C 158.36667 60.416668 160.93333 60.983337 161.3 66.15 C 157.33334 74.01666 153.98334 77.049995 151.25 75.25 C 150.65001 74.85 150.21667 73.799995 149.95 72.1 C 149.68333 70.2 150.90001 67.649994 153.6 64.45 Z M 160.2 69.35 C 157.1 76.71667 154.31668 82.083336 151.85 85.45 M 162.6 63.45 L 163.2 61.45 M 228.6 64.45 C 226.63333 68.61666 225.8 71.283325 226.1 72.45 C 227.1 76.049995 229.98334 74.18333 234.75 66.85 L 227.6 84.45 C 226.3 89.38333 228.63333 89.049995 234.6 83.45 M 222.6 66.45 C 227.03334 61.283333 229.03334 60.616665 228.6 64.45 M 234.75 66.85 L 236.6 62.05 M 216.45 65.4 L 215.65 67.4 L 215.05 68.8 L 212.35 74.1 L 212.1 74.55 L 211.7 75.3 C 207.3 83.166664 206.23334 87.166664 208.5 87.3 L 209.55 87.35 M 204.6 84.45 C 207.13333 82.049995 209.5 79.0 211.7 75.3 M 198.6 84.45 C 197.13333 88.51667 199.13333 88.51667 204.6 84.45 M 208.0 63.45 C 207.13333 66.71667 204.0 73.71667 198.6 84.45 M 217.6 62.45 L 216.45 65.4 M 200.6 65.45 C 205.73334 60.95 208.2 60.283337 208.0 63.45 M 211.9 87.9 L 215.6 84.45 M 211.7 88.1 L 211.9 87.9 M 207.0 92.45 C 207.76666 90.65 209.33333 89.200005 211.7 88.1 M 209.6 93.45 C 207.5 95.61666 206.63333 95.283325 207.0 92.45 M 211.3 89.85 C 211.16667 90.48334 210.6 91.683334 209.6 93.45 M 208.45 123.95 C 210.51666 121.78333 212.23334 120.61667 213.6 120.45 C 215.3 120.65 216.13333 121.65 216.1 123.45 M 208.45 123.95 C 206.85 128.88333 207.23334 131.68333 209.6 132.35 C 211.93333 132.98334 213.93333 132.48334 215.6 130.85 M 204.6 128.45 C 206.0 126.65 207.28333 125.15 208.45 123.95 M 245.6 140.05 C 245.13333 141.48334 244.13333 142.45 242.6 142.95 C 240.3 143.05 239.43333 142.21667 240.0 140.45 C 240.66667 137.78333 243.36667 135.26666 248.1 132.9 C 247.16667 135.3 246.33334 137.68333 245.6 140.05 Z M 251.05 125.95 C 248.21667 130.48334 246.06668 132.65001 244.6 132.45 C 241.93333 132.08333 242.6 128.41666 246.6 121.45 L 240.6 128.45 M 248.1 132.9 C 248.96666 130.59999 249.95 128.28333 251.05 125.95 L 251.9 124.55 L 253.6 121.45 M 251.6 130.45 L 248.1 132.9 M 233.5 132.3 C 232.53334 131.7 232.70001 129.75 234.0 126.45 C 236.23334 122.583336 236.1 120.75 233.6 120.95 C 232.33333 121.21667 231.06667 122.200005 229.8 123.9 L 228.6 126.45 L 225.6 132.45 M 230.0 121.45 C 230.23334 121.98333 230.16667 122.799995 229.8 123.9 M 237.6 130.45 C 235.8 132.25 234.43333 132.86667 233.5 132.3 M 223.6 124.45 C 226.96666 120.71667 229.09999 119.71667 230.0 121.45 M 224.6 120.45 C 223.40001 124.51667 221.73334 128.51666 219.6 132.45 M 219.6 126.35 C 221.56667 124.61667 223.23334 122.65 224.6 120.45 M 164.15 122.25 C 164.84999 121.38333 165.76666 120.96667 166.9 121.0 C 168.0 121.03333 168.71667 121.6 169.05 122.7 C 169.38333 123.73333 169.16666 125.35 168.4 127.55 C 167.76666 128.91667 166.91667 130.08334 165.85 131.05 C 164.61667 132.15 163.48334 132.71666 162.45 132.75 C 161.38333 132.71666 160.68333 132.15 160.35 131.05 C 160.05 129.95 160.23334 128.59999 160.9 127.0 C 161.3 125.96667 161.83334 125.05 162.5 124.25 L 164.15 122.25 Z M 162.5 124.25 L 162.5 124.2 M 158.6 128.45 C 159.73334 126.98333 161.03334 125.58333 162.5 124.25 M 180.4 132.25 C 179.13333 131.31667 179.53334 129.05 181.6 125.45 C 183.3 122.48333 183.3 120.816666 181.6 120.45 C 179.7 120.11666 177.43333 122.33333 174.8 127.1 L 172.6 131.45 L 171.6 132.95 M 176.6 120.85 C 176.23334 122.95 175.63333 125.03333 174.8 127.1 M 184.6 131.45 C 183.03334 132.88333 181.63333 133.15 180.4 132.25 M 172.2 124.45 C 173.76666 123.95 175.23334 122.75 176.6 120.85 M 199.6 132.45 C 196.16667 132.51666 195.5 130.84999 197.6 127.45 C 200.03334 124.51667 200.70001 122.51667 199.6 121.45 C 198.43333 120.45 195.93333 122.03333 192.1 126.2 L 183.6 143.45 M 194.6 120.85 L 192.1 126.2 L 183.6 143.45 M 202.6 130.45 C 201.56667 131.61667 200.56667 132.28334 199.6 132.45 M 187.6 128.45 L 194.6 120.85 M 284.6 124.45 C 283.03333 128.05 283.03333 130.51668 284.6 131.85 C 286.46667 133.15001 288.13333 133.01668 289.6 131.45 M 292.2 122.45 C 290.06668 119.98333 287.53336 120.649994 284.6 124.45 M 303.6 132.45 C 301.7 131.98334 301.90002 129.23334 304.2 124.2 C 302.83334 126.5 300.96667 128.91667 298.6 131.45 C 296.36667 133.01666 295.53333 132.68333 296.1 130.45 C 296.33334 128.41667 297.5 125.41667 299.6 121.45 C 298.33334 123.38333 296.6667 125.049995 294.6 126.45 M 304.3 132.35 L 303.6 132.45 M 305.6 121.45 L 304.2 124.2 M 317.6 120.45 C 317.26666 124.48333 319.13333 124.816666 323.2 121.45 L 318.6 130.45 C 318.2 132.05 318.61667 132.90001 319.85 133.0 C 321.11667 133.13333 322.7 132.28333 324.6 130.45 M 314.6 123.85 L 317.6 120.45 M 305.4 135.9 C 304.3 138.7 303.23334 139.55 302.2 138.45 C 302.13333 136.01666 303.36667 134.3 305.9 133.3 L 305.9 133.8 M 305.95 133.25 L 307.6 131.45 M 305.9 133.3 L 305.95 133.25 L 305.9 133.8 M 305.9 134.1 L 305.4 135.9 M 259.4 122.7 C 260.63333 121.566666 261.78333 121.0 262.85 121.0 C 263.88333 121.0 264.55 121.566666 264.85 122.7 L 265.0 124.1 L 264.45 125.5 L 264.0 126.7 L 262.75 129.5 L 261.55 130.8 C 260.31668 131.9 259.18335 132.46666 258.15 132.5 C 257.0833 132.46666 256.3833 131.9 256.05 130.8 C 255.75 129.7 255.93333 128.34999 256.6 126.75 C 256.9 125.950005 257.28333 125.216675 257.75 124.55 C 258.21667 123.85 258.76666 123.23333 259.4 122.7 Z M 266.25 122.8 C 267.48334 121.666664 268.63333 121.1 269.7 121.1 C 270.73334 121.1 271.4 121.666664 271.7 122.8 L 271.8 123.6 L 271.75 124.5 L 270.95 127.4 C 270.31668 128.76666 269.46667 129.93332 268.4 130.9 C 267.16666 132.0 266.03333 132.56667 265.0 132.6 C 263.93332 132.56667 263.2333 132.0 262.9 130.9 L 262.8 130.45 L 262.75 129.5 L 263.95 126.75 L 264.45 125.5 M 254.6 127.45 L 257.75 124.55 M 265.0 124.1 L 266.25 122.8 M 271.75 124.5 C 271.85 125.5 272.85 125.65 274.75 124.95 M 262.8 130.45 L 256.6 142.85 M 284.0 123.45 C 283.86667 126.083336 283.2 128.08334 282.0 129.45 C 278.43332 133.61667 276.16666 133.61667 275.2 129.45 M 276.6 123.45 C 280.6667 119.816666 283.13336 119.816666 284.0 123.45 M 250.6 63.45 C 248.6 69.91667 245.93333 75.91667 242.6 81.45 M 242.6 67.45 C 247.83333 61.916668 250.5 60.583336 250.6 63.45 M 144.45 9.6 L 144.1 9.75 L 143.75 9.6 L 143.6 9.25 L 143.75 8.9 L 144.1 8.75 L 144.45 8.9 L 144.6 9.25 L 144.45 9.6 Z M 147.5 9.75 L 147.15 9.6 L 147.0 9.25 L 147.15 8.9 C 147.25 8.8 147.36667 8.75 147.5 8.75 C 147.63333 8.75 147.75 8.8 147.85 8.9 L 148.0 9.25 L 147.85 9.6 L 147.5 9.75 Z M 145.6 12.5 C 143.93333 12.400001 142.56667 13.166667 141.5 14.8 C 140.43333 16.400002 140.08333 17.966667 140.45 19.5 C 140.85 21.266666 142.28334 22.6 144.75 23.5 C 140.28334 24.199999 137.3 25.616665 135.8 27.75 C 134.26666 29.883333 133.88333 32.166664 134.65 34.6 C 135.38333 37.0 136.73334 38.266666 138.7 38.4 C 140.93333 38.533333 142.95 37.066666 144.75 34.0 M 149.75 15.9 C 148.65001 13.7 147.26668 12.566667 145.6 12.5 M 129.45 12.45 C 127.78333 12.35 126.416664 13.116667 125.35 14.75 C 124.28333 16.35 123.933334 17.916668 124.3 19.45 C 124.700005 21.216667 126.13334 22.550001 128.6 23.45 C 124.13334 24.15 121.15 25.566666 119.65 27.7 C 118.11667 29.833334 117.73334 32.11667 118.5 34.55 C 119.23333 36.95 120.58333 38.216667 122.55 38.35 C 124.78333 38.483334 126.8 37.016666 128.6 33.95 M 133.6 15.85 C 132.5 13.65 131.11667 12.516666 129.45 12.45 M 109.6 35.85 C 118.166664 25.316666 119.166664 17.849998 112.6 13.45 L 111.65 13.25 C 108.51666 22.183334 104.58333 30.016668 99.85 36.75 C 103.75 39.316666 107.0 39.016666 109.6 35.85 Z M 105.6 13.45 C 102.03333 14.383333 100.36667 16.816666 100.6 20.75 M 99.85 36.75 L 99.6 37.05 C 96.933334 38.683334 95.26667 38.81667 94.6 37.45 C 93.96667 36.38333 94.3 35.516663 95.6 34.85 C 97.5 34.816666 98.916664 35.45 99.85 36.75 Z M 111.65 13.25 L 105.6 13.45 M 84.6 13.0 C 79.7 14.166667 78.7 16.983334 81.6 21.45 M 101.2 13.0 L 84.6 13.0 M 85.3 85.85 C 83.700005 87.183334 81.96667 87.816666 80.1 87.75 C 78.2 87.71667 77.166664 86.433334 77.0 83.9 C 76.86667 81.36667 77.35 78.38333 78.45 74.95 C 79.549995 71.51667 81.48333 68.48334 84.25 65.85 C 86.98333 63.216667 89.33333 61.883335 91.3 61.85 C 93.3 61.783333 94.36667 63.016666 94.5 65.55 L 94.55 66.25 M 88.5 82.65 L 85.3 85.85 M 104.95 62.45 C 100.049995 63.616665 99.049995 66.433334 101.95 70.9 M 132.6 62.45 L 104.95 62.45 M 98.95 85.9 C 96.416664 89.4 94.25 88.566666 92.45 83.4 M 109.85 64.3 C 107.51666 72.566666 103.88333 79.76666 98.95 85.9 M 138.95 62.45 C 140.25 62.45 140.46667 63.25 139.6 64.85 L 136.35 71.05 C 135.35 73.35 135.23334 74.75 136.0 75.25 C 139.03334 77.25 143.03334 73.3 148.0 63.4 C 143.46666 73.9 139.66666 81.25 136.6 85.45 C 133.26668 88.816666 130.8 88.48333 129.2 84.45 M 148.3 62.95 L 148.6 62.45 M 132.85 65.85 C 135.48334 63.583332 137.51666 62.45 138.95 62.45 M 148.0 63.4 L 148.3 62.95 M 116.95 84.7 C 116.25 89.299995 118.583336 88.96666 123.95 83.7 M 125.2 64.4 C 120.26667 75.23334 117.51667 82.0 116.95 84.7 M 67.95 12.85 C 69.35 12.35 70.566666 12.683333 71.6 13.85 C 72.76666 15.183333 72.6 17.066666 71.1 19.5 C 69.46667 22.1 67.13333 23.416668 64.1 23.45 C 66.7 24.583334 68.26666 26.300001 68.8 28.6 C 69.26667 30.633333 68.91667 32.666668 67.75 34.7 C 66.583336 36.666668 65.083336 37.883335 63.25 38.35 C 61.183334 38.916668 59.3 38.283337 57.6 36.45 M 55.1 37.45 C 53.2 39.416668 52.233334 38.75 52.2 35.45 C 52.533333 32.216667 56.333332 26.083332 63.6 17.05 C 61.133335 25.416668 58.300003 32.216667 55.1 37.45 Z M 63.6 17.05 C 65.03333 14.783333 66.48333 13.383333 67.95 12.85 M 64.6 13.45 L 63.6 17.05 M 35.4 15.4 C 36.033333 13.099999 38.13333 11.983333 41.7 12.05 L 54.55 11.9 M 36.6 20.85 C 35.3 19.083334 34.9 17.266666 35.4 15.4 M 43.05 37.9 C 44.983334 36.733334 46.350002 34.716667 47.15 31.85 C 47.916668 29.05 47.766666 26.883333 46.7 25.35 C 45.5 23.583334 43.466667 23.5 40.6 25.1 L 35.6 36.85 C 38.266666 38.95 40.75 39.300003 43.05 37.9 Z M 40.6 25.1 L 40.6 25.15 C 35.533333 29.15 32.866665 32.583332 32.6 35.45 C 32.399998 38.983334 33.399998 39.45 35.6 36.85 M 45.1 14.45 L 40.6 25.1 M 78.6 36.45 C 76.066666 39.95 73.9 39.11667 72.1 33.95 M 90.6 13.45 L 78.6 36.45 M 15.6 33.45 C 13.966666 33.016666 12.933332 32.3 12.5 31.3 C 12.133333 30.4 12.283333 29.533333 12.95 28.7 C 13.616667 27.866667 14.5 27.433332 15.6 27.4 C 16.9 27.366667 18.116667 27.933334 19.25 29.1 M 19.6 29.45 C 23.133333 25.083332 27.416668 19.149998 32.45 11.65 L 23.9 33.15 L 21.75 38.5 C 22.216667 36.533333 22.266666 34.8 21.9 33.3 L 21.55 33.45 C 19.55 33.75 17.733334 33.75 16.1 33.45 L 19.6 29.45 Z M 16.1 33.45 L 15.6 33.45 M 23.9 33.15 L 25.8 33.05 M 21.9 33.3 L 23.9 33.15 M 6.6 33.45 C 6.5333333 40.283333 9.7 40.283333 16.1 33.45 M 19.6 29.45 C 20.766666 30.483334 21.533333 31.766666 21.9 33.3 M 21.75 38.5 L 21.6 38.85 M 27.45 65.5 C 27.616667 68.03333 26.916666 71.1 25.35 74.7 C 23.75 78.26667 21.75 81.31667 19.35 83.85 C 16.95 86.38333 14.833334 87.65 13.0 87.65 C 11.133333 87.65 10.116667 86.38333 9.95 83.85 C 9.816667 81.316666 10.55 78.26666 12.15 74.7 C 13.716666 71.1 15.7 68.03333 18.1 65.5 C 20.5 62.966667 22.633333 61.7 24.5 61.7 C 26.333334 61.7 27.316668 62.966667 27.45 65.5 Z M 38.8 62.2 C 33.9 63.36667 32.9 66.183334 35.8 70.65 M 59.6 62.2 L 38.8 62.2 M 32.8 85.65 C 30.266666 89.15 28.1 88.316666 26.3 83.15 M 43.6 64.4 C 41.266666 72.53333 37.666668 79.61667 32.8 85.65 M 64.2 62.8 C 66.46667 61.5 69.083336 61.383335 72.05 62.45 C 74.98333 63.483334 76.61666 65.01667 76.95 67.05 C 77.316666 69.38334 75.53333 71.41667 71.6 73.15 M 60.6 71.45 C 60.333332 67.21667 61.533333 64.333336 64.2 62.8 M 60.6 85.95 C 57.166668 88.71667 55.166668 88.083336 54.6 84.05 M 70.6 63.85 C 67.433334 75.85 64.1 83.21667 60.6 85.95 M 43.6 84.45 C 42.899998 89.049995 45.23333 88.71666 50.6 83.45 M 51.75 64.4 C 46.883335 75.1 44.166668 81.78333 43.6 84.45 M 77.0 123.05 L 77.4 122.25 L 77.65 121.5 L 77.75 121.1 M 77.0 123.05 C 75.066666 126.91667 74.2 129.63333 74.4 131.2 C 74.333336 133.53333 75.65 133.29999 78.35 130.5 C 79.85 128.86667 81.299995 127.0 82.7 124.9 C 80.666664 128.3 80.01666 130.83334 80.75 132.5 C 81.21667 133.09999 82.35 132.76666 84.15 131.5 M 82.9 124.6 L 84.75 121.5 M 73.7 125.9 C 75.13333 125.3 76.23333 124.350006 77.0 123.05 M 82.7 124.9 L 82.9 124.6 M 60.85 123.0 L 61.25 122.2 L 61.5 121.45 L 61.6 121.05 M 60.85 123.0 C 58.916668 126.86667 58.050003 129.58333 58.25 131.15 C 58.183334 133.48332 59.5 133.24998 62.2 130.45 C 63.699997 128.81667 65.149994 126.95 66.55 124.85 C 64.51667 128.25 63.86667 130.78333 64.6 132.45 C 65.066666 133.05 66.2 132.71667 68.0 131.45 M 66.75 124.55 L 68.6 121.45 M 57.55 125.85 C 58.983334 125.25 60.083332 124.3 60.85 123.0 M 66.55 124.85 L 66.75 124.55 M 50.35 133.15 C 49.75 135.18333 48.166668 138.15001 45.6 142.05 C 43.3 144.01666 42.1 143.48332 42.0 140.45 C 42.566666 137.98334 45.43333 135.1 50.6 131.8 L 50.35 133.15 Z M 50.6 131.8 L 50.6 131.45 C 50.533333 130.08333 49.75 129.56667 48.25 129.9 L 47.6 130.05 M 54.6 124.45 C 52.6 127.48333 50.483334 129.29999 48.25 129.9 L 47.6 130.05 M 54.6 121.45 C 54.93333 122.28333 54.93333 123.28333 54.6 124.45 M 55.6 127.85 L 50.6 131.8 M 45.6 126.45 C 49.966667 121.71667 52.966667 120.05 54.6 121.45 M 36.95 123.6 C 33.916668 129.4 33.8 132.34999 36.6 132.45 C 38.266666 132.48334 40.266666 131.48334 42.6 129.45 M 38.6 121.95 L 36.95 123.6 L 28.1 132.45 C 30.666668 128.31667 32.5 124.51667 33.6 121.05 C 31.5 123.15 29.2 124.816666 26.7 126.05 C 27.5 123.083336 27.566666 121.41667 26.9 121.05 M 26.7 126.05 C 26.666666 126.916664 25.816666 128.54999 24.15 130.95 C 22.483334 133.35 21.266666 133.65001 20.5 131.85 C 19.699999 130.05 21.766666 128.11667 26.7 126.05 Z M 26.9 121.05 C 25.1 120.05 22.0 122.183334 17.6 127.45 M 42.6 123.45 C 42.833332 120.35 41.5 119.85 38.6 121.95 M 14.6 117.95 L 14.75 117.6 L 15.1 117.45 L 15.45 117.6 L 15.6 117.95 L 15.45 118.3 L 15.1 118.45 L 14.75 118.3 L 14.6 117.95 Z M 11.15 118.3 L 11.0 117.95 L 11.15 117.6 C 11.25 117.5 11.366667 117.45 11.5 117.45 L 11.85 117.6 L 12.0 117.95 L 11.85 118.3 L 11.5 118.45 L 11.15 118.3 Z M 8.05 124.6 C 8.783333 122.86667 10.266666 121.78333 12.5 121.35 C 14.733334 120.95 15.383333 121.73333 14.45 123.7 C 12.783333 126.03333 10.449999 127.61667 7.45 128.45 C 7.1166663 127.61666 7.3166666 126.33333 8.05 124.6 Z M 7.45 128.45 C 7.5499997 132.01666 8.883333 133.43333 11.45 132.7 C 12.85 132.06667 14.233334 130.98334 15.6 129.45 M 6.45 128.7 L 7.45 128.45 M 147.6 121.45 C 148.13333 121.183334 148.13333 120.85 147.6 120.45 L 147.1 121.95 L 147.6 121.45 Z M 151.6 125.45 L 152.65 124.5 L 153.05 124.1 L 150.6 131.45 M 153.05 124.1 C 153.55 122.4 154.40001 121.183334 155.6 120.45 C 154.90001 121.78333 154.05 123.0 153.05 124.1 Z M 150.6 131.45 C 150.23334 133.48334 151.56667 133.48334 154.6 131.45 M 143.6 132.45 C 143.13333 132.58333 143.46666 131.25 144.6 128.45 L 145.35 127.25 L 143.6 132.45 Z M 147.1 121.95 L 145.35 127.25 L 151.6 125.45 M 143.6 125.45 L 147.1 121.95 M 131.2 121.55 L 131.6 120.85 M 123.6 131.45 C 126.23334 128.68333 128.76666 125.38334 131.2 121.55 C 128.56667 126.35 127.53333 129.65 128.1 131.45 C 128.86667 132.68333 129.7 132.85 130.6 131.95 C 133.5 129.35 135.81667 126.51667 137.55 123.45 C 134.68333 128.95 134.03334 131.95 135.6 132.45 C 136.66667 132.88333 137.66667 132.55 138.6 131.45 M 118.6 129.45 C 118.9 133.01666 120.566666 133.68333 123.6 131.45 M 138.8 120.95 L 137.55 123.45 M 93.1 125.6 L 94.6 123.45 C 96.86667 120.45 98.86667 120.11666 100.6 122.45 M 91.55 127.75 L 93.1 125.6 C 96.166664 124.933334 97.5 125.4 97.1 127.0 C 95.63333 129.0 95.13333 130.48334 95.6 131.45 C 96.1 133.11667 97.433334 133.11667 99.6 131.45 M 91.55 127.75 L 90.0 130.75 L 89.5 131.4 L 88.6 132.45 M 93.6 121.05 L 92.55 123.45 C 92.38334 124.98333 92.05 126.416664 91.55 127.75 M 85.6 130.45 C 88.933334 127.98333 91.25 125.649994 92.55 123.45 C 92.38334 124.98333 92.05 126.416664 91.55 127.75 M 106.6 131.45 C 110.0 128.21666 113.0 124.88332 115.6 121.45 C 112.433334 126.28333 111.1 129.61667 111.6 131.45 C 111.83333 133.55 113.49999 133.21667 116.6 130.45 M 102.6 128.95 C 102.33333 132.88333 103.666664 133.71666 106.6 131.45"
         id="path22" />
      <path
         fill="none"
         stroke="#000000"
         stroke-width="1.0"
         stroke-linecap="round"
         stroke-linejoin="round"
         d="M 298.4 87.7 L 298.25 88.95"
         id="path24" />
      <path
         fill="none"
         stroke="#000000"
         stroke-width="1.0"
         stroke-linecap="round"
         stroke-linejoin="round"
         d="M 369.4 131.5 L 369.1 133.45 L 369.05 133.75 L 368.8 134.6 M 367.45 132.85 L 369.4 131.5 M 298.65 85.4 C 298.18335 86.333336 297.3667 86.85 296.2 86.95 M 298.4 87.7 L 298.65 85.4 M 212.25 85.25 L 211.9 87.9 L 211.7 88.1 L 211.3 89.85 M 209.55 87.35 C 211.11667 86.95 212.01666 86.25 212.25 85.25 M 306.05 131.45 L 305.95 133.25 L 305.9 133.8 L 305.9 134.1 M 304.3 132.35 L 306.05 131.45"
         id="path26" />
    </g>
  </g>
</svg>
