<?xml version="1.0" encoding="utf-8" standalone="no"?><!DOCTYPE svg PUBLIC "-//W3C//DTD SVG 1.1//EN" "http://www.w3.org/Graphics/SVG/1.1/DTD/svg11.dtd"><svg xmlns="http://www.w3.org/2000/svg" width="100px" height="19px"><desc xml:lang="zh-Hans-CN">“周睿康”篆书标志©周睿康，2014年</desc><style>path{fill:none;stroke:#fff;stroke-width:1px}</style><path d="M.5 0v17M30.5 0v17M15.5 0v12.5M15.5 2.5h15M.5 5.5h30M.5 8.5h30M6.5 12.5h18M6.5 11v4.5h18v-4.5M48.5 0v3.5M48.5 1.5h13M33.5 17v-13.5h30v13.5M44 5.5h9M45 6.5h-10M52 6.5h10M44 8.5h-10.5M53 8.5h10.5M39.5 10.5v6h18v-6zM39.5 12.5h18M39.5 14.5h18M72.5 0v1.5h18v-1.5M81.5 1.5v15.5M65 3.5h33M78 5.5h-5.5v4h5.5M79 7.5h-12.5v9.5M85 5.5h5.5v4h-5.5M84 7.5h12.5v9.5M75.5 9.5v2h12v-2M70 13.5h23M72.5 17v-1.5h18v1.5"/></svg>