<?xml version="1.0" encoding="utf-8" standalone="no"?>
<!DOCTYPE svg PUBLIC "-//W3C//DTD SVG 1.1//EN" "http://www.w3.org/Graphics/SVG/1.1/DTD/svg11.dtd">
<svg xmlns="http://www.w3.org/2000/svg" width="100px" height="19px">
<title xml:lang="zh">周睿康</title>
<desc xml:lang="zh-Hans">“周睿康”篆书标志。©周睿康，2014年</desc>
<style type="text/css"><![CDATA[path { fill: none; stroke: black; stroke-width: 1px; }]]></style>
<path d="M0.5,0 v17 M30.5,0 v17 M15.5,0 v12.5 M15.5,2.5 h15 M0.5,5.5 h30 M0.5,8.5 h30 M6.5,12.5 h18 M6.5,11 v4.5 h18 v-4.5"/>
<path d="M48.5,0 v3.5 M48.5,1.5 h13 M33.5,17 v-13.5 h30 v13.5 M44,5.5 h9 M45,6.5 h-10 M52,6.5 h10 M44,8.5 h-10.5 M53,8.5 h10.5 M39.5,10.5 v6 h18 v-6 Z M39.5,12.5 h18 M39.5,14.5 h18"/>
<path d="M72.5,0 v1.5 h18 v-1.5 M81.5,1.5 v15.5 M65,3.5 h33 M78,5.5 h-5.5 v4 h5.5 M79,7.5 h-12.5 v9.5 M85,5.5 h5.5 v4 h-5.5 M84,7.5 h12.5 v9.5 M75.5,9.5 v2 h12 v-2 M70,13.5 h23 M72.5,17 v-1.5 h18 v1.5"/>
</svg>